<svg xmlns="http://www.w3.org/2000/svg" viewBox="0 0 64 64" x="0px" y="0px" style="max-width:100%" height="100%"><g style="" fill="currentColor"><path d="M49,18H45c-1.629,0-3,1.548-3.62,4H28.636c-.619-2.4-1.977-4-3.636-4H21c-2.28,0-4,3.01-4,7s1.72,7,4,7h4c1.659,0,3.017-1.6,3.636-4H41.38C42,30.452,43.371,32,45,32h4c2.28,0,4-3.01,4-7S51.28,18,49,18ZM21,30c-.815,0-2-1.948-2-5s1.185-5,2-5,2,1.948,2,5S21.815,30,21,30Zm4,0H23.853A10.239,10.239,0,0,0,25,25a10.239,10.239,0,0,0-1.147-5H25c.815,0,2,1.948,2,5S25.815,30,25,30Zm18-4H28.958c.025-.326.042-.658.042-1s-.017-.674-.042-1H43Zm2,4c-.5,0-1.127-.734-1.543-2H45V22H43.457c.416-1.266,1.047-2,1.543-2,.815,0,2,1.948,2,5S45.815,30,45,30Zm4,0H47.853A10.239,10.239,0,0,0,49,25a10.239,10.239,0,0,0-1.147-5H49c.815,0,2,1.948,2,5S49.815,30,49,30Z" style="" fill="currentColor"></path><path d="M58,2H12A7.009,7.009,0,0,0,5,9V57a5.006,5.006,0,0,0,5,5H58a1,1,0,0,0,1-1V3A1,1,0,0,0,58,2ZM13,16H57V34H13ZM7,19.487V18a1.883,1.883,0,0,1,2-2V14a4.08,4.08,0,0,0-2,.487V9a5.009,5.009,0,0,1,4-4.9V52H10a4.948,4.948,0,0,0-3,1.026V23a1.883,1.883,0,0,1,2-2V19A4.08,4.08,0,0,0,7,19.487ZM10,60a3,3,0,0,1,0-6H57v2H9v2H57v2Zm47-8H13V36H57ZM13,14V4H57V14Z" style="" fill="currentColor"></path><polygon points="15 47 15 49 21 49 21 43 17 43 17 41 21 41 21 39 15 39 15 45 19 45 19 47 15 47" style="" fill="currentColor"></polygon><path d="M25,45h4V39H23V49h2Zm0-4h2v2H25Z" style="" fill="currentColor"></path><path d="M38,39H31V49h7Zm-2,8H33V41h3Z" style="" fill="currentColor"></path><path d="M42,45.667,44.5,49H47V47H45.5L44,45h3V39H40V49h2ZM42,41h3v2H42Z" style="" fill="currentColor"></path><polygon points="51 49 53 49 53 41 55 41 55 39 49 39 49 41 51 41 51 49" style="" fill="currentColor"></polygon><rect x="23" y="10" width="24" height="2" style="" fill="currentColor"></rect><rect x="28" y="6" width="14" height="2" style="" fill="currentColor"></rect><rect x="17" y="10" width="4" height="2" style="" fill="currentColor"></rect><rect x="49" y="10" width="4" height="2" style="" fill="currentColor"></rect><rect x="20" y="6" width="6" height="2" style="" fill="currentColor"></rect><rect x="44" y="6" width="6" height="2" style="" fill="currentColor"></rect></g></svg>