


<svg xmlns="http://www.w3.org/2000/svg" viewBox="0 0 40 51" x="0px" y="0px" style="max-width:100%" height="100%"><title style="" fill="#62d0df">Asset 6</title><g data-name="Layer 2" style="" fill="#62d0df"><g data-name="Layer 1" style="" fill="#62d0df"><circle cx="13" cy="20.5" r="1.5" style="" fill="#62d0df"></circle><circle cx="27" cy="20.5" r="1.5" style="" fill="#62d0df"></circle><path d="M20,31.6a3.34,3.34,0,0,0,3.34-3.34,1,1,0,0,0-2,0,1.34,1.34,0,1,1-2.68,0,1,1,0,0,0-2,0A3.34,3.34,0,0,0,20,31.6Z" style="" fill="#62d0df"></path><path d="M20,25.09a2.77,2.77,0,0,0,1.72-.57A1,1,0,1,0,20.48,23a.89.89,0,0,1-1,0,1,1,0,1,0-1.23,1.58A2.82,2.82,0,0,0,20,25.09Z" style="" fill="#62d0df"></path><path d="M33.8,36.08l-4.87-2a15.16,15.16,0,0,0,4.76-7,6,6,0,0,0,3.12-10.58C36.16,6.47,29.61,0,20,0S4.08,6.27,3.46,16.4A5.74,5.74,0,0,0,1,21.15a6,6,0,0,0,5.31,6,15.16,15.16,0,0,0,4.76,7l-4.9,2C3.19,37.44,0,39.2,0,43v7a1,1,0,0,0,2,0V43c0-2.36,1.83-3.66,5-5.08l4-1.67a9,9,0,0,0,18,0l4,1.66c3.16,1.43,5,2.72,5,5.09v7a1,1,0,0,0,2,0V43C40,39.2,36.81,37.44,33.8,36.08ZM20,2c8.09,0,13.73,5.24,14.72,13.48l-1-.22-.35-.07a16.67,16.67,0,0,1-7.61-5.52,1,1,0,0,0-1.56,0c-2.53,3.13-5.76,5-8.85,5.18a8.28,8.28,0,0,1-1.65-.08c-.22,0-.42-.09-.64-.14a8.76,8.76,0,0,0,1.28-1.57A1,1,0,1,0,12.67,12a6.82,6.82,0,0,1-2.15,2.13l0,0,0,0a8.17,8.17,0,0,1-1,.52,7.14,7.14,0,0,1-2.36.53,12.46,12.46,0,0,0-1.62.25C6.43,7,11.75,2,20,2ZM7.19,22.12a1,1,0,0,0-2,.25,24.31,24.31,0,0,0,.47,2.54A4,4,0,0,1,3,21.15a3.77,3.77,0,0,1,1.91-3.32h0c.09-.05.19-.09.28-.13v.46a1,1,0,0,0,2,0v-.94l.16,0a9,9,0,0,0,3-.71c.25-.12.49-.24.72-.37a10.7,10.7,0,0,0,2.35.63,10.31,10.31,0,0,0,2,.1,14.29,14.29,0,0,0,9.53-5,18,18,0,0,0,7.81,5.26s0,0,0,.06v1a1,1,0,0,0,2,0v-.55a2.57,2.57,0,0,1,.46.25,4,4,0,0,1-.94,7.06,24.29,24.29,0,0,0,.47-2.52,1,1,0,0,0-2-.25C32.31,26,30.08,35,20,35S7.68,26,7.19,22.12ZM23.95,36.51a4,4,0,0,1-7.9,0,16.14,16.14,0,0,0,7.9,0ZM20,43a7,7,0,0,1-7-7c0-.22,0-.43,0-.65.32.17.65.32,1,.47A1,1,0,0,0,14,36a6,6,0,0,0,12,0,1,1,0,0,0,0-.18c.34-.14.67-.3,1-.47,0,.21,0,.43,0,.65A7,7,0,0,1,20,43Z" style="" fill="#62d0df"></path></g></g></svg>