<svg xmlns="http://www.w3.org/2000/svg" viewBox="0 0 64 64" x="0px" y="0px" style="max-width:100%" height="100%"><g style="" fill="currentColor"><rect x="21" y="31" width="2" height="2" style="" fill="currentColor"></rect><rect x="41" y="31" width="2" height="2" style="" fill="currentColor"></rect><path d="M35.071,31.628,34,34.308l-3.071-7.68a1,1,0,0,0-1.858,0L27.323,31H25v2h3a1,1,0,0,0,.929-.628L30,29.692l3.071,7.68a1,1,0,0,0,1.858,0L36.677,33H39V31H36A1,1,0,0,0,35.071,31.628Z" style="" fill="currentColor"></path><path d="M36.643,19.854l.714-1.869a15.128,15.128,0,0,0-10.714,0l.714,1.869A13.109,13.109,0,0,1,36.643,19.854Z" style="" fill="currentColor"></path><path d="M22.042,23.644a12.918,12.918,0,0,1,3.637-3.008l-.971-1.748A15.05,15.05,0,0,0,17.82,27.1l1.891.653A12.907,12.907,0,0,1,22.042,23.644Z" style="" fill="currentColor"></path><path d="M19.231,29.537l-1.963-.379a15.061,15.061,0,0,0,1.86,10.551l1.716-1.028a13.068,13.068,0,0,1-1.613-9.144Z" style="" fill="currentColor"></path><path d="M41.958,23.644a12.907,12.907,0,0,1,2.331,4.105L46.18,27.1a15.05,15.05,0,0,0-6.888-8.208l-.971,1.748A12.918,12.918,0,0,1,41.958,23.644Z" style="" fill="currentColor"></path><path d="M44.769,29.537a13.066,13.066,0,0,1-1.613,9.144l1.716,1.028a15.058,15.058,0,0,0,1.86-10.551Z" style="" fill="currentColor"></path><path d="M51.243,25.03l-1.751-.438A19.089,19.089,0,0,0,39.41,14.519l-.44-1.762A1,1,0,0,0,38,12H26a1,1,0,0,0-.97.757l-.44,1.762A19.089,19.089,0,0,0,14.508,24.592l-1.751.438A1,1,0,0,0,12,26V38a1,1,0,0,0,.757.97l1.751.438A19.089,19.089,0,0,0,24.59,49.481l.44,1.762A1,1,0,0,0,26,52H38a1,1,0,0,0,.97-.757l.44-1.762A19.089,19.089,0,0,0,49.492,39.408l1.751-.438A1,1,0,0,0,52,38V26A1,1,0,0,0,51.243,25.03ZM50,37.219l-1.485.371a1,1,0,0,0-.688.6A17.073,17.073,0,0,1,38.2,47.816a1,1,0,0,0-.6.689L37.219,50H26.781l-.374-1.495a1,1,0,0,0-.605-.689A17.073,17.073,0,0,1,16.173,38.2a1,1,0,0,0-.688-.6L14,37.219V26.781l1.485-.371a1,1,0,0,0,.688-.605A17.073,17.073,0,0,1,25.8,16.184a1,1,0,0,0,.605-.689L26.781,14H37.219l.374,1.495a1,1,0,0,0,.6.689,17.073,17.073,0,0,1,9.629,9.621,1,1,0,0,0,.688.605L50,26.781Z" style="" fill="currentColor"></path><path d="M59,28H55.66a23.848,23.848,0,0,0-1.166-4.364l2.887-1.67a1,1,0,0,0,.365-1.365l-3-5.2a1,1,0,0,0-1.366-.366l-2.9,1.672A24.14,24.14,0,0,0,48,14.131V9a1,1,0,0,0-.553-.895L44,6.382V3a1,1,0,0,0-1-1H21a1,1,0,0,0-1,1V6.382L16.553,8.105A1,1,0,0,0,16,9v5.131a23.956,23.956,0,0,0,0,35.738V55a1,1,0,0,0,.553.9L20,57.618V61a1,1,0,0,0,1,1H43a1,1,0,0,0,1-1V57.618L47.447,55.9A1,1,0,0,0,48,55V49.869a24.14,24.14,0,0,0,2.481-2.575l2.9,1.672a1,1,0,0,0,1.366-.366l3-5.2a1,1,0,0,0-.365-1.365l-2.887-1.67A23.848,23.848,0,0,0,55.66,36H59a1,1,0,0,0,1-1V29A1,1,0,0,0,59,28ZM53.514,17.266l2,3.469-1.806,1.044A23.944,23.944,0,0,0,51.7,18.314ZM46,9.618v2.907q-.966-.7-2-1.3V8.618ZM42,4v6.191a23.916,23.916,0,0,0-20,0V4ZM18,9.618l2-1v2.611q-1.033.6-2,1.3Zm0,44.764V51.475q.966.7,2,1.3v2.611ZM22,60V53.809a23.916,23.916,0,0,0,20,0V60Zm24-5.618-2,1V52.771q1.034-.6,2-1.3ZM32,54A22,22,0,1,1,54,32,22.025,22.025,0,0,1,32,54ZM55.515,43.265l-2,3.469L51.7,45.686a23.944,23.944,0,0,0,2.011-3.465ZM58,34H55.91c.055-.66.09-1.326.09-2s-.035-1.34-.09-2H58Z" style="" fill="currentColor"></path><rect x="28" y="46" width="8" height="2" style="" fill="currentColor"></rect><rect x="31" y="42" width="2" height="2" style="" fill="white"></rect></g></svg>
