



<svg xmlns="http://www.w3.org/2000/svg" xmlns:xlink="http://www.w3.org/1999/xlink" version="1.1" x="0px" y="0px" viewBox="0 0 60 60" style="enable-background:new 0 0 60 60;max-width:100%" xml:space="preserve" height="100%"><path d="M13.1748657,54.5869141c0.2236328,0,0.4433594-0.0058594,0.6572266-0.0170898  c1.1601563-0.0615234,3.2529297-0.3452148,4.2314453-1.5571289c0,0,0,0,0.0009766,0  c0.6507568-0.805603,1.1098022-2.0447998,1.3903809-3.4615479c3.5683594,0.3068848,7.1553345,0.4674072,10.7424316,0.4674072  c3.4639282,0,6.9251709-0.1499023,10.3654175-0.4359741c0.270874,1.303833,0.751709,2.6497192,1.611145,3.508728  c1.0527344,1.0537109,3.2783203,1.4956055,5.2304688,1.4956055c0.2226563,0,0.4423828-0.0058594,0.6552734-0.0170898  c1.1611328-0.0615234,3.2539063-0.3452148,4.2333984-1.5571289c0,0,0,0,0.0009766,0  c2.2880859-2.8325195,2.2880859-10.9443359-0.0009766-13.777832c-0.9794922-1.2114258-3.0722656-1.4951172-4.2324219-1.5561523  c-2.0888672-0.1132813-4.7138672,0.3041992-5.8867188,1.4780273c-0.8594971,0.859314-1.3403931,2.2054443-1.6112671,3.5093994  c-7.0041504-0.5823975-14.0953979-0.5713501-21.1079712,0.0315552c-0.2807007-1.4171143-0.7399902-2.6568604-1.3911133-3.4628296  c-0.9785156-1.2109375-3.0712891-1.4946289-4.2304688-1.5561523c-2.0878906-0.1098633-4.7148438,0.3041992-5.8896484,1.4780273  c-2.6044922,2.6049805-2.6044922,11.3300781,0,13.9345703C8.9971313,54.1450195,11.2227173,54.5869141,13.1748657,54.5869141z   M47.3848267,39.6611328c0.1875,0,0.3779297,0.0048828,0.5703125,0.0146484  c1.53125,0.0810547,2.5009766,0.46875,2.7822266,0.8164063c1.6582031,2.0527344,1.6582031,9.2104492,0.0009766,11.2636719  c-0.2822266,0.3481445-1.2519531,0.7358398-2.7841797,0.8164063c-2.0283203,0.1083984-3.8515625-0.3808594-4.3662109-0.8950195  c-0.5591431-0.5588379-0.9871216-1.7848511-1.2055054-3.2994995c-0.0003052-0.0022583,0.0007324-0.0043945,0.0004272-0.0066528  c-0.2089844-1.4487305-0.2089844-3.0449219,0-4.4936523c0.0003662-0.0023804-0.0007324-0.0046387-0.0004272-0.007019  c0.2183838-1.5146484,0.6463623-2.7407837,1.2055054-3.2996216C44.053772,40.1054688,45.5859985,39.6611328,47.3848267,39.6611328z   M40.2839355,44.6429443c-0.0512695,0.6326294-0.0631714,1.1619263-0.0631714,1.4810791  c0,0.3193359,0.0118408,0.8488159,0.0631714,1.4815674c-6.8218994,0.5609131-13.7285767,0.5496826-20.56427-0.0317993  c0.0723267-0.9581909,0.0723267-1.9403687-0.000061-2.8985596C26.550415,44.0927734,33.4580078,44.0810547,40.2839355,44.6429443z   M9.3574829,40.5712891c0.4658203-0.4658203,1.9990234-0.9101563,3.796875-0.9101563  c0.1884766,0,0.3798828,0.0048828,0.5722656,0.0146484c1.53125,0.0810547,2.5009766,0.46875,2.78125,0.8164063  c0.5728149,0.7091064,0.9429321,2.0321045,1.1199951,3.5388184c0.0286255,0.2344971,0.0498047,0.4735718,0.0685425,0.7139893  c0.0108032,0.1449585,0.0227051,0.2891846,0.0300293,0.4359131c0.0076294,0.1453857,0.0095825,0.2918701,0.0137329,0.4381714  c0.0089111,0.3373413,0.0089111,0.6748047-0.000061,1.012146c-0.0040894,0.1453247-0.0060425,0.2908936-0.0136108,0.4353638  c-0.0073242,0.1478271-0.0194092,0.2930908-0.0302734,0.4390869c-0.0185547,0.2382202-0.0395508,0.4750977-0.0678711,0.7074585  c-0.1768799,1.5083618-0.5471802,2.8330078-1.1204834,3.5427246c-0.28125,0.3481445-1.2509766,0.7353516-2.78125,0.8164063  c-2.0351563,0.1098633-3.8544922-0.3803711-4.3691406-0.8950195C7.5410767,49.8608398,7.5410767,42.3876953,9.3574829,40.5712891z" style="" fill="#62d0df"></path><path d="M43.6231079,23.9365234c0.6015625,0.3330078,1.4072266,0.472168,2.2851563,0.472168  c1.2412109,0,2.6259766-0.277832,3.7822266-0.6772461c1.0976563-0.3789063,3.03125-1.2294922,3.6376953-2.6640625v-0.0004883  c1.4179688-3.3549805-0.8212891-11.1518555-3.8037109-13.2421875c-1.2753906-0.894043-3.3652344-0.5888672-4.4980469-0.3276367  c-2.0341797,0.4697266-4.4462891,1.5942383-5.25,3.0463867c-0.588623,1.0630493-0.6790771,2.489563-0.5795288,3.8175659  c-6.8960571,1.374939-13.7081299,3.3428955-20.2787476,5.8582153c-0.6610718-1.2844238-1.4447632-2.348877-2.2930908-2.9433594  c-1.2763672-0.8945313-3.3632813-0.5893555-4.4960938-0.328125c-2.0341797,0.4692383-4.4472656,1.5932617-5.2519531,3.0463867  c-1.2412109,2.2416992-0.2783203,6.1049805,0.046875,7.2358398c0.3251953,1.1303711,1.5585938,4.9160156,3.8007813,6.1572266  c0.6015625,0.3330078,1.4072266,0.472168,2.2851563,0.472168c1.2412109,0,2.6279297-0.2783203,3.7841797-0.6777344  c1.0976563-0.3793945,3.0292969-1.2299805,3.6347656-2.6640625c0.4031982-0.9540405,0.5024414-2.2718506,0.3812256-3.7109375  c6.9054565-1.3565674,13.7229004-3.3040161,20.2960205-5.7980347  C41.7263184,22.1870117,42.5599365,23.3479614,43.6231079,23.9365234z M41.5264282,11.5117188  c0.3515625-0.6357422,1.9619141-1.6069336,3.9501953-2.065918c0.6738281-0.1557617,1.2548828-0.2197266,1.7236328-0.2197266  c0.5703125,0,0.9746094,0.0952148,1.1757813,0.2363281c2.1611328,1.5146484,4.1376953,8.3950195,3.1103516,10.8261719  c-0.1748047,0.4121094-0.9990234,1.0522461-2.4492188,1.5527344c-1.9296875,0.6660156-3.8095703,0.6977539-4.4453125,0.3452148  c-0.6911621-0.3826294-1.4407959-1.442688-2.0687866-2.8377686c-0.0009766-0.0021973-0.0005493-0.0047607-0.0015259-0.006958  c-0.6005859-1.3344727-1.0419922-2.8686523-1.2412109-4.3193359c-0.0002441-0.0016479-0.0014038-0.0029907-0.0016479-0.0046387  C41.0703125,13.5009155,41.1433105,12.2035522,41.5264282,11.5117188z M18.5869751,29.7392578  c-0.1738281,0.4121094-0.9980469,1.0517578-2.4462891,1.5517578c-1.9296875,0.6665039-3.8115234,0.6987305-4.4472656,0.3461914  c-1.0117188-0.5600586-2.15625-2.5532227-2.8476563-4.9594727c-0.6914063-2.4067383-0.7792969-4.703125-0.21875-5.7148438  c0.3525391-0.6367188,1.9638672-1.6074219,3.9521484-2.0664063c0.6728516-0.1552734,1.2529297-0.2192383,1.7207031-0.2192383  c0.5712891,0,0.9755859,0.0952148,1.1767578,0.2363281c0.7471313,0.5236206,1.46875,1.6942139,2.0552979,3.0947266  c0.0921631,0.2174683,0.1785889,0.4414063,0.2629395,0.6674194c0.0492554,0.1333618,0.0994263,0.265625,0.1459351,0.4014893  c0.0523071,0.1516113,0.0991821,0.3059692,0.1477051,0.4598389c0.0911255,0.2901611,0.1751099,0.5819702,0.2522583,0.8762207  c0.0432129,0.1657715,0.0878906,0.3311768,0.1260986,0.4971924c0.0304565,0.1304932,0.0562134,0.2598877,0.0834961,0.3897095  c0.0525513,0.2549438,0.1019897,0.5093994,0.1415405,0.7609863C18.932373,27.5453491,18.93927,28.9053955,18.5869751,29.7392578z   M20.5187988,24.8324585c-0.1949463-0.9408569-0.4660645-1.8848877-0.8001099-2.7857666  c6.402771-2.4456787,13.038208-4.3632202,19.7557373-5.7092896c0.1252441,0.6224365,0.2598877,1.1345825,0.3479004,1.4414063  c0.0883179,0.3070679,0.2460938,0.8131104,0.4703369,1.4075928C33.8873901,21.6098633,27.2449951,23.5061646,20.5187988,24.8324585z  " style="" fill="#62d0df"></path></svg>
