<svg xmlns="http://www.w3.org/2000/svg" xmlns:xlink="http://www.w3.org/1999/xlink" version="1.1" x="0px" y="0px" viewBox="0 0 48 48" enable-background="new 0 0 48 48" xml:space="preserve" style="max-width:100%" height="100%"><g style="" fill='#F6B5AD'><path d="M44.2,25.2c-0.6,0-1.2,0.2-1.7,0.4v-0.3c0-2-1.6-3.7-3.7-3.7s-3.7,1.6-3.7,3.7V31H30V13.8c0-2.2-1.8-4-4-4h-0.4V5.8   c0-0.6-0.4-1-1-1H20V2h2.8c0.6,0,1-0.4,1-1c0-0.6-0.4-1-1-1h-7.5c-0.6,0-1,0.4-1,1c0,0.6,0.4,1,1,1H18v2.8h-4.6c-0.6,0-1,0.4-1,1   v4.1h-0.4c-2.2,0-4,1.8-4,4v8.1c-1.5,0.4-2.7,1.8-2.7,3.5v0.3c-0.5-0.3-1.1-0.4-1.7-0.4c-2,0-3.7,1.6-3.7,3.7v11.9   c0,2,1.6,3.7,3.7,3.7c0.6,0,1.2-0.2,1.7-0.4v0.3c0,2,1.6,3.7,3.7,3.7c0.5,0,1-0.1,1.5-0.3c0.5,0.2,1,0.3,1.5,0.3h14   c2.2,0,4-1.8,4-4v-5.2h5.3v5.6c0,2,1.6,3.7,3.7,3.7s3.7-1.6,3.7-3.7v-0.3c0.5,0.3,1.1,0.4,1.7,0.4c2,0,3.7-1.6,3.7-3.7V28.9   C47.9,26.9,46.3,25.2,44.2,25.2z M5.4,40.8c0,0.9-0.7,1.7-1.7,1.7c-0.9,0-1.7-0.7-1.7-1.7V28.9c0-0.9,0.7-1.7,1.7-1.7   c0.9,0,1.7,0.7,1.7,1.7V40.8z M14.5,6.8h9.2v3.1h-9.2V6.8z M10.7,44.3c0,0.9-0.7,1.7-1.7,1.7c-0.9,0-1.7-0.7-1.7-1.7V25.4   c0-0.9,0.7-1.7,1.7-1.7c0.9,0,1.7,0.7,1.7,1.7V44.3z M10.6,22.1c-0.2-0.1-0.3-0.1-0.5-0.2v-8.1c0-1.1,0.9-2,2-2h14c1.1,0,2,0.9,2,2   v8.3H10.6z M12.5,24.1H28V31H12.7v-5.6C12.7,24.9,12.6,24.5,12.5,24.1z M28,44c0,1.1-0.9,2-2,2H12.3c0.3-0.5,0.4-1.1,0.4-1.7v-5.6   H28V44z M35.3,36.8H12.7V33H29c0,0,0,0,0,0s0,0,0,0h6.2V36.8z M40.6,28.9v11.9v3.5c0,0.9-0.7,1.7-1.7,1.7c-0.9,0-1.7-0.7-1.7-1.7   V25.4c0-0.9,0.7-1.7,1.7-1.7c0.9,0,1.7,0.7,1.7,1.7V28.9z M45.9,40.8c0,0.9-0.7,1.7-1.7,1.7c-0.9,0-1.7-0.7-1.7-1.7V28.9   c0-0.9,0.7-1.7,1.7-1.7c0.9,0,1.7,0.7,1.7,1.7V40.8z" style="" fill='#F6B5AD'></path></g></svg>

