


<svg xmlns="http://www.w3.org/2000/svg" xmlns:xlink="http://www.w3.org/1999/xlink" version="1.1" x="0px" y="0px" viewBox="0 0 96 96" enable-background="new 0 0 96 96" xml:space="preserve" style="max-width:100%" height="100%"><g style="" fill="#62d0df"><path fill="#62d0df" d="M75.269,86.229c-3.992,0-7.453-2.569-8.61-6.395L53.615,36.767l17.229-5.216l13.042,43.067   c0.696,2.302,0.456,4.736-0.679,6.855c-1.134,2.12-3.025,3.671-5.327,4.367C77.03,86.099,76.151,86.229,75.269,86.229z    M58.604,39.436l11.883,39.24c0.634,2.093,2.6,3.554,4.782,3.554c0.489,0,0.978-0.073,1.452-0.217   c1.278-0.387,2.33-1.249,2.96-2.426c0.63-1.178,0.764-2.53,0.377-3.81L68.174,36.538L58.604,39.436z" style=""></path></g><g style="" fill="#62d0df"><path fill="#62d0df" d="M21.841,86.229L21.841,86.229c-0.882,0-1.761-0.131-2.611-0.389c-2.301-0.696-4.192-2.247-5.327-4.367   c-1.134-2.12-1.375-4.555-0.678-6.855l13.041-43.067l17.229,5.216L30.451,79.836C29.294,83.659,25.833,86.229,21.841,86.229z    M28.936,36.538l-11.883,39.24c-0.388,1.278-0.254,2.631,0.377,3.808c0.63,1.178,1.681,2.04,2.959,2.427   c0.475,0.144,0.964,0.217,1.452,0.217c2.183,0,4.148-1.461,4.782-3.553l11.883-39.241L28.936,36.538z" style=""></path></g><g style="" fill="#62d0df"><rect x="35.5" y="20.594" transform="matrix(0.9487 0.3162 -0.3162 0.9487 10.9339 -10.394)" fill="#62d0df" width="4" height="15.811" style=""></rect></g><g style="" fill="#62d0df"><rect x="50.922" y="26.5" transform="matrix(0.3714 0.9285 -0.9285 0.3714 63.5495 -36.8648)" fill="#62d0df" width="16.155" height="4.001" style=""></rect></g><g style="" fill="#62d0df"><path fill="#62d0df" d="M48,30c-5.514,0-10-4.486-10-10s4.486-10,10-10s10,4.486,10,10S53.514,30,48,30z M48,14   c-3.309,0-6,2.691-6,6s2.691,6,6,6s6-2.691,6-6S51.309,14,48,14z" style=""></path></g></svg>
