




<svg xmlns="http://www.w3.org/2000/svg" viewBox="0 0 64 64" x="0px" y="0px" style="max-width:100%" height="100%"><title style="" fill="#62d0df">yoga-spa-meditation-woman-activity-lifestyle-healthy</title><g style="" fill="#62d0df"><circle cx="27.5" cy="22.5" r="1.5" style="" fill="#62d0df"></circle><circle cx="36.5" cy="22.5" r="1.5" style="" fill="#62d0df"></circle><path d="M58.239,54.366,50.491,41.934a9.038,9.038,0,0,0-4.824-3.795l-7.948-2.632a1.007,1.007,0,0,1-.692-.957V33.169A10.6,10.6,0,0,0,41.932,26H42a3.987,3.987,0,0,0,1.968-7.461c.009-.18.032-.357.032-.539A11.991,11.991,0,0,0,38.466,7.907c.012-.135.034-.269.034-.407C38.5,4.467,35.584,2,32,2s-6.5,2.467-6.5,5.5c0,.139.012.276.024.413A11.992,11.992,0,0,0,20,18c0,.183.013.363.024.544A3.986,3.986,0,0,0,22,26h.068a10.6,10.6,0,0,0,4.9,7.169V34.55a1.007,1.007,0,0,1-.691.957l-7.938,2.628A9.076,9.076,0,0,0,13.5,41.944L5.761,54.366a4.918,4.918,0,0,0-.128,5.051A4.968,4.968,0,0,0,10.033,62H53.967a4.968,4.968,0,0,0,4.4-2.583A4.918,4.918,0,0,0,58.239,54.366ZM43,47.183,48.246,55H44.923A8.952,8.952,0,0,0,43,48.633ZM27,37.352l.189-.064a3,3,0,0,0,1.784-2.738v-.279A7.955,7.955,0,0,0,32,35a7.955,7.955,0,0,0,3.027-.729v.279a3,3,0,0,0,1.784,2.738l.189.064V40a2,2,0,0,1-2,2H29a2,2,0,0,1-2-2ZM44,22a2,2,0,0,1-2,2V20A2,2,0,0,1,44,22ZM32,4c2.2,0,4.023,1.232,4.416,2.853a11.857,11.857,0,0,0-8.832,0C27.977,5.232,29.8,4,32,4ZM22,24a2,2,0,0,1,0-4Zm0-6a10,10,0,0,1,20,0h-.75A18.473,18.473,0,0,1,35.8,13.4,1,1,0,0,0,35,13h0a1.008,1.008,0,0,0-.8.4c-.028.037-2.924,3.752-11.258,4.6Zm2,7V19.893c6.217-.8,9.531-3.1,10.951-4.394A20.079,20.079,0,0,0,40,19.6V25c0,4.812-5.693,8-8,8S24,29.812,24,25Zm7,35H10.033a2.993,2.993,0,0,1-2.652-1.554,2.944,2.944,0,0,1,.077-3.023L15.2,43a7.08,7.08,0,0,1,3.774-2.969L21,39.362V43.6L13.048,55.443A1,1,0,0,0,13.878,57h14.1a1,1,0,0,0,1-1V54.141L30.739,48H31ZM19.069,55H15.754L21,47.183v1.45A8.957,8.957,0,0,0,19.069,55ZM31,46h-.261a2.01,2.01,0,0,0-1.922,1.447l-1.8,6.277a.99.99,0,0,0-.039.276v1H21.086a7.148,7.148,0,0,1,1.657-5.331A1,1,0,0,0,23,49V38.7l2-.674V40a4,4,0,0,0,4,4h6a4,4,0,0,0,4-4V38.026l2,.674V49a1,1,0,0,0,.257.669A7.064,7.064,0,0,1,42.922,55H37.027V54a.99.99,0,0,0-.039-.276l-1.8-6.277A2.01,2.01,0,0,0,33.261,46H33a1.984,1.984,0,0,0-1,.269A1.984,1.984,0,0,0,31,46ZM56.619,58.446A2.993,2.993,0,0,1,53.967,60H33V48h.261l1.766,6.141V56a1,1,0,0,0,1,1h14.1a1,1,0,0,0,.83-1.557L43,43.6V39.362l2.039.675a7.042,7.042,0,0,1,3.755,2.955l7.748,12.431A2.944,2.944,0,0,1,56.619,58.446Z" style="" fill="#62d0df"></path><path d="M35.409,28.72,34.02,27.28a2.622,2.622,0,0,1-3.611,0L29.02,28.72a4.639,4.639,0,0,0,6.389,0Z" style="" fill="#62d0df"></path></g></svg>
