



<svg xmlns="http://www.w3.org/2000/svg" viewBox="0 0 64 64" x="0px" y="0px" style="max-width:100%" height="100%"><g style="" fill="#62d0df"><path d="M52,50H44.82l5.062-7.961a10.38,10.38,0,0,0,1.447-3.594,10.252,10.252,0,0,0,.211-2.095,10.622,10.622,0,0,0-1.114-4.724l-.63-1.271a10.559,10.559,0,0,0-.8-1.324c0-.011,0-.02,0-.031V9.58a3.019,3.019,0,0,0-2.311-2.914L32.312,3.287a3.014,3.014,0,0,0-2.809.8l-6.21,6.21c-.024.024-.041.053-.062.078s-.022.018-.031.029l-3,4a1,1,0,0,0-.2.69l.156,1.729-3.736,7.928a15.134,15.134,0,0,0-1.413,5.983A2.613,2.613,0,0,0,15,31v5.741L7.9,49.549A6.774,6.774,0,0,0,7.162,54.4l.024.108a6.5,6.5,0,0,0,6.6,5.269,7.431,7.431,0,0,0,.8-.043A100,100,0,0,0,24.5,57.862,4.938,4.938,0,0,0,24,60v1a1,1,0,0,0,1,1H52a6,6,0,0,0,0-12ZM49.381,37.97l-.129.318a4.451,4.451,0,0,1-3.41,2.725A1,1,0,0,0,46,43a.965.965,0,0,0,.159-.013,6.294,6.294,0,0,0,.887-.212l-4.716,7.416-9.638,3.855L28.87,55c-.041,0-.08.013-.121.015l-2.579-8.6,6.305-4.209a5.664,5.664,0,0,0,1.7-1.782,5.138,5.138,0,0,0,2.314,1.591l.155.052a1,1,0,1,0,.635-1.9l-.155-.052a3.156,3.156,0,0,1-2.115-2.466l.523-1.446c.12-.328.226-.66.322-.994.032-.112.055-.226.085-.339.057-.222.116-.445.162-.67.029-.136.049-.273.073-.409.037-.2.074-.407.1-.612.02-.145.032-.291.047-.437.021-.2.041-.4.053-.594.009-.15.013-.3.017-.451s.013-.311.012-.467l1.909,2.287a4.081,4.081,0,0,0,7.22-2.607,4.122,4.122,0,0,0-.292-1.523L44.4,27.3l1.41,1.176A8.607,8.607,0,0,1,48,31.244l.631,1.274a8.6,8.6,0,0,1,.905,3.832A8.28,8.28,0,0,1,49.381,37.97ZM28.97,16.758,28.183,13.6a2.994,2.994,0,0,0,1.442-.623l2.882-2.306A6.958,6.958,0,0,0,31,15v4a7.014,7.014,0,0,0,4.906,6.68l-1.35,1.349-11.966.855,3.248-7.308,2.869-2.869A1,1,0,0,0,28.97,16.758ZM37,7a1.993,1.993,0,0,1,1.744,1.041A7.044,7.044,0,0,0,38,8a6.937,6.937,0,0,0-2.966.669A2,2,0,0,1,37,7Zm4.086,4.1a4.807,4.807,0,0,1,.427.352c.1.1.178.212.268.317a5.008,5.008,0,0,1,.342.414c.081.118.14.25.211.374a4.958,4.958,0,0,1,.252.464c.059.136.094.282.14.423a4.825,4.825,0,0,1,.157.5c.032.149.038.307.057.461s.043.309.047.469l-5.54-2.77a1,1,0,0,0-1.342.448,5.738,5.738,0,0,1-2.552,2.552L33,15.382V15a5,5,0,0,1,6-4.9c.107.022.2.066.309.095a4.793,4.793,0,0,1,.623.194c.117.048.22.119.332.177a5.065,5.065,0,0,1,.513.278C40.887,10.92,40.982,11.014,41.086,11.1ZM36.353,28.061l2.083-2.083a6.96,6.96,0,0,0,2.809-.781c.01,0,.022,0,.032-.008a.569.569,0,0,0,.052-.033c.016-.008.03-.018.046-.027l2,5.007a2.126,2.126,0,0,1,.151.784,2.081,2.081,0,0,1-3.682,1.329ZM43,19a5,5,0,0,1-10,0V17.618l1.447-.723a7.771,7.771,0,0,0,2.941-2.583L43,17.118ZM34.2,29.06l.008.039c.068.387.115.776.147,1.165.008.1.012.2.018.3q.027.474.018.947c0,.091,0,.182-.005.273-.016.387-.049.773-.1,1.157-.011.082-.027.164-.04.247-.05.317-.113.632-.187.945-.014.057-.027.115-.042.172a5.738,5.738,0,0,0-1.552-1.538,4.463,4.463,0,0,0-2.632-.7L22,32.6V29.931ZM21.684,38.869A3.014,3.014,0,0,0,22,37.528V34.6l7.956-.537a2.379,2.379,0,0,1,1.408.373,3.679,3.679,0,0,1,1.608,2.615c0,.024-.014.044-.014.069,0,.151.023.3.036.444,0,.014,0,.027,0,.04a3.626,3.626,0,0,1-1.625,2.939l-6.885,4.6L16.32,49.6ZM47,9.58V26.866l-3.815-3.18A6.965,6.965,0,0,0,45,19V15a7,7,0,0,0-4.033-6.331A3.964,3.964,0,0,0,40.6,7.29l5.632,1.323A1,1,0,0,1,47,9.58ZM30.917,5.5a.994.994,0,0,1,.934-.264l2.693.633a3.988,3.988,0,0,0-1.406,2.148.992.992,0,0,0-.763.205l-4,3.2a.989.989,0,0,1-1.067.114l-1.619-.809Zm-8.832,11.93a1,1,0,0,0,.091-.517l-.146-1.617L24.3,12.268l1.7.85.892,3.575-2.6,2.6a.992.992,0,0,0-.207.3L20.35,28H18a2.992,2.992,0,0,0-.625.068,13.175,13.175,0,0,1,.86-2.471Zm-7.7,40.314a4.6,4.6,0,0,1-5.242-3.673l-.024-.108a4.787,4.787,0,0,1,.527-3.429l7.234-13.046A1,1,0,0,0,17,37V31a1,1,0,0,1,1-1h2v7.528a1.016,1.016,0,0,1-.105.447l-6.79,13.578a1,1,0,0,0,1.374,1.325L24.4,47.469l2.344,7.81A124.5,124.5,0,0,1,14.38,57.741ZM52,60H26a3,3,0,0,1,3-3,1,1,0,0,0,.243-.03L33.122,56H50a1,1,0,0,0,0-2H38.193l5-2H52a4,4,0,0,1,0,8Z" style="" fill="#62d0df"></path><path d="M37,18v3a1,1,0,0,0,2,0V19h2a1,1,0,0,0,0-2H38A1,1,0,0,0,37,18Z" style="" fill="#62d0df"></path><path d="M7.808,45a.989.989,0,0,0,.443-.1A1,1,0,0,0,8.7,43.555,26.023,26.023,0,0,1,22.371,7.841a1,1,0,0,0-.742-1.858A28.024,28.024,0,0,0,6.911,44.445,1,1,0,0,0,7.808,45Z" style="" fill="#62d0df"></path><path d="M58,32a25.827,25.827,0,0,1-4.814,15.076,1,1,0,1,0,1.628,1.16,28.005,28.005,0,0,0-2.073-35.047,1,1,0,0,0-1.481,1.344A25.943,25.943,0,0,1,58,32Z" style="" fill="#62d0df"></path></g></svg>
