<svg xmlns="http://www.w3.org/2000/svg" data-name="Layer 1" viewBox="0 0 128 128" x="0px" y="0px" style="max-width:100%" height="100%"><title style="" fill="currentColor">miscellaneous 61 final</title><path d="M18.09375,56.91113l.48975-1.02283c-1.7099-8.98419.38568-16.94482,6.25635-23.66174,6.63477-7.58984,13.79395-10.25488,20.582-10.25488,6.45605,0,12.57617,2.41309,17.58008,5.29492l.002.001a46.05523,46.05523,0,0,1,7.38477,5.21484,2.00021,2.00021,0,0,0,2.70605-2.94629,44.77989,44.77989,0,0,0-5.084-3.87012c10.04492-4.88574,23.42188-6.85547,35.14941,6.56055,6.01563,6.88281,8.0791,15.06836,6.13379,24.32617a45.175,45.175,0,0,1-4.21448,11.45441,5.93045,5.93045,0,0,1,.45667.777l1.6933,3.5365A50.78265,50.78265,0,0,0,113.208,57.376c2.1875-10.40527-.24609-20.0127-7.03613-27.78223C91.19238,12.457,73.70605,17.93457,64,23.24023c-9.707-5.30859-27.19336-10.7832-42.17187,6.35352A30.57814,30.57814,0,0,0,14.0722,48.26031c.03864.07489.08649.14325.12213.22015Z" style="" fill="currentColor"></path><path d="M24.62433,71.05725l-1.2132,2.53357a5.937,5.937,0,0,1-.98029,1.44476c9.58905,14.83893,25.842,27.80237,40.72052,34.775a1.9954,1.9954,0,0,0,1.69727,0A106.66506,106.66506,0,0,0,99.2608,83.46411l-1.00787-2.10474L96.10645,83.375a5.95965,5.95965,0,0,1-3.5144,1.56921A103.5668,103.5668,0,0,1,64,105.78516C49.28137,98.682,33.35065,85.6712,24.62433,71.05725Z" style="" fill="currentColor"></path><path d="M2,53l5.4707.001,8.71387,18.83887A1.99938,1.99938,0,0,0,17.98633,73H18a1.99842,1.99842,0,0,0,1.80371-1.13672L28.499,53.70313,34.63184,59.458A1.99433,1.99433,0,0,0,36,60H49.29486a7,7,0,1,0,0-4H36.791l-7.54785-7.083a1.99887,1.99887,0,0,0-3.17187.59473l-8.04,16.792-7.4668-16.14258A2.001,2.001,0,0,0,8.749,49.001L2,49a2,2,0,0,0,0,4Zm54,2a3,3,0,1,1-3,3A3.00328,3.00328,0,0,1,56,55Z" style="" fill="currentColor"></path><path d="M126,70l-6.749.001a2.001,2.001,0,0,0-1.81543,1.16016l-7.4668,16.14258-8.04-16.792a1.99887,1.99887,0,0,0-3.17187-.59473L91.209,77H78.70514a7,7,0,1,0,0,4H92a1.99433,1.99433,0,0,0,1.36816-.542L99.501,74.70313l8.69531,18.16016A1.99842,1.99842,0,0,0,110,94h.01367a1.99938,1.99938,0,0,0,1.80176-1.16016L120.5293,74.001,126,74a2,2,0,0,0,0-4ZM72,82a3,3,0,1,1,3-3A3.00328,3.00328,0,0,1,72,82Z" style="" fill="currentColor"></path></svg>
