<?xml version="1.0" encoding="UTF-8"?>
<svg width="795px" height="217px" viewBox="0 0 795 217" version="1.1" xmlns="http://www.w3.org/2000/svg" xmlns:xlink="http://www.w3.org/1999/xlink">
    <!-- Generator: Sketch 58 (84663) - https://sketch.com -->
    <title>Group 3</title>
    <desc>Created with Sketch.</desc>
    <g id="Page-1" stroke="none" stroke-width="1" fill="none" fill-rule="evenodd">
        <g id="Group-3">
            <g id="Group" transform="translate(0.000000, 17.000000)">
                <path d="M165,0 C165,19.3299662 180.670034,35 200,35 L200,188 C200,194.627417 194.627417,200 188,200 L12,200 C5.372583,200 8.11624501e-16,194.627417 0,188 L0,12 C-8.11624501e-16,5.372583 5.372583,1.21743675e-15 12,0 L165,0 L165,0 Z" id="Combined-Shape" fill="#FFFFFF"></path>
                <g id="heart-rate" transform="translate(29.000000, 33.000000)" fill="#62D0DF" fill-rule="nonzero">
                    <path d="M106.000544,54 C103.794809,54 102,55.7942097 102,57.9994563 C102,60.2057903 103.794809,62 106.000544,62 C108.206278,62 110,60.2057903 110,57.9994563 C110,55.7942097 108.206278,54 106.000544,54 Z" id="Path"></path>
                    <path d="M139.749091,27.6863423 C135.285786,16.2387265 126.747575,7.45502844 115.70987,2.95528598 C105.740259,-1.10850246 95.8535645,-0.980345319 86.3214471,3.33428096 C79.5713945,6.39143303 74.4851255,10.9820899 71.5481379,14.0951055 C68.5947852,10.9919484 63.4856054,6.41553082 56.7159143,3.37152336 C47.1576128,-0.927768 37.2578265,-1.04716226 27.2914887,3.01334031 C16.2526921,7.51417778 7.71557196,16.2967808 3.25117633,27.7454917 C-1.49142585,39.908378 -1.02774847,53.6945892 4.52656201,65.5683004 C9.42845089,76.0509034 16.6214522,86.758055 25.9048203,97.392913 C36.9305245,110.023518 50.9423118,122.570877 67.5506928,134.687758 C68.7497082,135.562951 70.1560145,136 71.56123,136 C72.9675364,136 74.3738427,135.561856 75.5739494,134.686662 C92.1539641,122.590593 106.147204,110.030091 117.161998,97.3556709 C126.380997,86.7481968 133.552178,76.0333776 138.474796,65.5102463 C144.026925,53.6365352 144.491693,39.850324 139.749091,27.6863423 Z M106.364314,70.3802203 C100.999839,70.3802203 96.4208875,66.9418827 94.6992805,62.1452979 L83.6430278,62.1452979 L75.3939332,72.385826 C74.4665784,73.535955 73.0951842,74.1865992 71.6452374,74.1865992 C71.4597665,74.1865992 71.2732045,74.1756457 71.0866424,74.1548338 C69.4359507,73.9642408 68.0165523,72.9554136 67.2899423,71.4547692 L57.7403688,51.7295118 L54.9953983,59.0114704 C54.2884265,60.8867281 52.471902,62.1452979 50.4764522,62.1452979 L28.4326806,62.1452979 C26.1186574,62.1452979 24.2432184,60.2623726 24.2432184,57.9402077 C24.2432184,55.6180428 26.1186574,53.7351175 28.4326806,53.7351175 L48.0249624,53.7351175 L52.8144777,41.0300275 C53.4974474,39.2172056 55.1863244,37.9882106 57.1152226,37.9005818 C59.0473936,37.8118576 60.8366431,38.8831203 61.6810817,40.6269347 L72.3871213,62.7411742 L78.1923632,55.5358907 C79.1164449,54.3901434 80.4856572,53.7351175 81.9497868,53.7351175 L94.7003714,53.7351175 C96.4219787,48.9385328 101.00093,45.5001951 106.364314,45.5001951 C113.198374,45.5001951 118.757049,51.0810582 118.757049,57.9402077 C118.757049,64.7993572 113.198374,70.3802203 106.364314,70.3802203 L106.364314,70.3802203 Z" id="Shape"></path>
                </g>
            </g>
            <g id="Group-2" transform="translate(247.000000, 26.000000)">
                <text id="HOMEFIT" font-family="Rubik-BlackItalic, Rubik" font-size="110" font-style="italic" font-weight="700" letter-spacing="3">
                    <tspan x="3" y="103" fill="#FFFFFF">HOME</tspan>
                    <tspan x="348.74" y="103" fill="#FFE2DE">FIT</tspan>
                </text>
                <text id="FITNESS-&amp;-YOGA.ONLIN" font-family="Rubik-Bold, Rubik" font-size="40" font-weight="bold" letter-spacing="2">
                    <tspan x="0" y="171" fill="#FFFFFF">FITNESS &amp; YOGA</tspan>
                    <tspan x="356.52" y="171" fill="#FFE2DE" fill-opacity="0">.</tspan>
                    <tspan x="369.72" y="171" fill="#FFE2DE">ONLINE</tspan>
                </text>
            </g>
            <circle id="Oval" fill="#FFE2DE" cx="200" cy="17" r="17"></circle>
        </g>
    </g>
</svg>