<svg xmlns="http://www.w3.org/2000/svg" viewBox="0 0 64 64" x="0px" y="0px" style="max-width:100%" height="100%"><g style="" fill='#F6B5AD'><path d="M28,21a1,1,0,0,0,1-1V19a1,1,0,0,0-2,0v1A1,1,0,0,0,28,21Z" style="" fill='#F6B5AD'></path><path d="M36,21a1,1,0,0,0,1-1V19a1,1,0,0,0-2,0v1A1,1,0,0,0,36,21Z" style="" fill='#F6B5AD'></path><path d="M32,25h2a1,1,0,0,0,0-2H33V21a1,1,0,0,0-2,0v3A1,1,0,0,0,32,25Z" style="" fill='#F6B5AD'></path><path d="M50.562,39H38V32.153a7.157,7.157,0,0,0,1.577-1.839A16.972,16.972,0,0,0,41.65,25H43a3,3,0,0,0,3-3V21a2.983,2.983,0,0,0-.8-2.023c.086.006.17.023.258.023H47a1,1,0,0,0,1-1V16.459A4.008,4.008,0,0,0,45.993,13,4.008,4.008,0,0,0,48,9.541V8a1,1,0,0,0-1-1H45.459a4.007,4.007,0,0,0-3.753,2.638A9.994,9.994,0,0,0,22.2,10H21v6h1v2H21a3,3,0,0,0-3,3v1a3,3,0,0,0,3,3h1.351a17.164,17.164,0,0,0,2.1,5.357A7.062,7.062,0,0,0,26,32.154V39H13.438A6.445,6.445,0,0,0,7,45.438V47H4a1,1,0,0,0-1,1V58a1,1,0,0,0,1,1H7v2a1,1,0,0,0,1,1H56a1,1,0,0,0,1-1V45.438A6.445,6.445,0,0,0,50.562,39ZM28,40V33.445A5.976,5.976,0,0,0,30.514,34h2.972A5.98,5.98,0,0,0,36,33.445V41a4,4,0,0,1-8,0ZM23,14V12H40v2Zm21,8a1,1,0,0,1-1,1H42V20h1a1,1,0,0,1,1,1Zm-2-4V16.993A4,4,0,0,0,42.831,18Zm4-1h-.541A2.007,2.007,0,0,1,43.5,15.392l-.224-1.118,1.118.224A2.007,2.007,0,0,1,46,16.459Zm-2.5-6.392A2.007,2.007,0,0,1,45.459,9H46v.541A2.007,2.007,0,0,1,44.392,11.5l-1.118.224ZM32,4a8.008,8.008,0,0,1,7.737,6H24.26A7.981,7.981,0,0,1,32,4ZM22,23H21a1,1,0,0,1-1-1V21a1,1,0,0,1,1-1h1v3Zm2-1.432V16H40v5.568a15.047,15.047,0,0,1-2.163,7.76,5.02,5.02,0,0,1-1.516,1.588l-.616.412A3.982,3.982,0,0,1,33.486,32H30.514a3.976,3.976,0,0,1-2.218-.672l-.619-.412a5.082,5.082,0,0,1-1.539-1.631A15,15,0,0,1,24,21.568ZM26,41a6,6,0,0,0,12,0h2a8,8,0,0,1-16,0ZM9,52h7v2H9Zm0-6.562A4.442,4.442,0,0,1,13.438,41H16v9H9V45.438ZM5,57V49H7v8Zm4,1V56h7v4H9Zm9,2V41h4a10,10,0,0,0,20,0h4V60Zm37,0H48V41h2.562A4.442,4.442,0,0,1,55,45.438Z" style="" fill='#F6B5AD'></path><path d="M29.553,28.9l.211.105a5.024,5.024,0,0,0,4.472,0l.211-.105a1,1,0,1,0-.894-1.79l-.211.106a3.016,3.016,0,0,1-2.684,0l-.211-.106a1,1,0,0,0-.894,1.79Z" style="" fill='#F6B5AD'></path></g></svg>
