




<svg xmlns="http://www.w3.org/2000/svg" data-name="Layer 1" viewBox="0 0 128 128" x="0px" y="0px" style="max-width:100%" height="100%"><title style="" fill="#62d0df">miscellaneous101 expandline</title><path d="M127.32813,95.16174c-.60937-.54218-15.02979-13.17108-33.05225-13.17108-.13525,0-.27148.001-.40674.002a44.40586,44.40586,0,0,0-19.29065,4.93C78.84772,79.62238,83,69.67511,83,58.54883,83,36.17468,66.1958,17.413,65.48047,16.62567a2.06438,2.06438,0,0,0-2.96094,0C61.8042,17.413,45,36.17468,45,58.54883c0,11.12573,4.15186,21.07245,8.42084,28.37262a44.40953,44.40953,0,0,0-19.29-4.92883c-.13672-.001-.27-.002-.40674-.002-18.021,0-32.44287,12.62988-33.05225,13.17108a2.00012,2.00012,0,0,0-.0332,2.96088c.60107.55878,14.93018,13.683,33.14355,13.87543.13574.001.271.002.40625.002,13.87744,0,25.10376-7.4967,29.81189-11.20831C68.7005,104.49915,79.923,112,93.81152,112c.13428,0,.27148-.001.40625-.002,18.21338-.19244,32.54248-13.31665,33.14355-13.87543a2.00012,2.00012,0,0,0-.0332-2.96088Zm-93.50391,12.835c-13.126-.13867-24.418-7.95068-28.6665-11.30426C9.44434,93.45911,20.752,85.99194,33.73242,85.99194c.11816,0,.2373.001.35645.002,13.145.13867,23.89746,7.979,27.86328,11.29547C57.91016,100.52081,46.99316,108.09839,33.82422,107.99677ZM64,94.97614c-4.00781-4.75732-15-19.3634-15-36.42731C49,41.50348,59.95313,26.1745,64.00146,21.09192,68.05176,26.16864,79,41.47418,79,58.54883,79,75.61273,68.00781,90.21881,64,94.97614Zm30.17578,13.02063c-13.14307.11237-24.08594-7.476-28.12793-10.7074,3.96582-3.31647,14.71826-11.1568,27.86328-11.29547.12012-.001.2373-.002.35645-.002,12.98193,0,24.29346,7.47107,28.57715,10.70251C118.606,100.048,107.33643,107.85809,94.17578,107.99677Z" style="" fill="#62d0df"></path><path d="M20.98273,79.76245c1.435-.41022,2.918-.76447,4.44678-1.04529A56.29666,56.29666,0,0,1,14.63379,60.612c4.7359-.72522,16.38934-1.74591,26.66852,3.281q-.24124-2.22968-.28357-4.53125C27.08917,53.5271,12.23279,56.948,11.53564,57.11481a2.00068,2.00068,0,0,0-1.45947,2.49194A60.04509,60.04509,0,0,0,20.98273,79.76245Z" style="" fill="#62d0df"></path><path d="M113.36621,60.612a56.22133,56.22133,0,0,1-10.86072,18.17767c1.52448.287,3.00665.64429,4.44568,1.05206a60.00974,60.00974,0,0,0,10.97266-20.235,2.00068,2.00068,0,0,0-1.45947-2.49194c-.69757-.16681-15.55414-3.5885-29.48309,2.24683q-.03873,2.3009-.28357,4.53162C96.977,58.866,108.63068,59.88672,113.36621,60.612Z" style="" fill="#62d0df"></path><path d="M64,52a8,8,0,1,0,8,8A8.00917,8.00917,0,0,0,64,52Zm0,12a4,4,0,1,1,4-4A4.00427,4.00427,0,0,1,64,64Z" style="" fill="#62d0df"></path></svg>
