<svg xmlns="http://www.w3.org/2000/svg" xmlns:xlink="http://www.w3.org/1999/xlink" version="1.1" x="0px" y="0px" viewBox="0 0 100 100" enable-background="new 0 0 100 100" xml:space="preserve" style="max-width:100%" height="100%"><g style="" fill="currentColor"><path fill="currentColor" d="M1355.15,100.38c0-5.709-4.645-10.354-10.354-10.354s-10.354,4.645-10.354,10.354   c0,5.71,4.645,10.355,10.354,10.355S1355.15,106.09,1355.15,100.38z M1344.797,109.535c-5.049,0-9.154-4.106-9.154-9.155   c0-5.047,4.105-9.153,9.154-9.153c5.047,0,9.152,4.106,9.152,9.153C1353.949,105.429,1349.844,109.535,1344.797,109.535z" style=""></path><path fill="currentColor" d="M1423.516,129.803c-0.004-0.005-0.01-0.013-0.014-0.019c-0.002-0.003-0.002-0.005-0.002-0.008   c-8.053-12.019-18.357-22.005-30.625-29.685c0,0,0-0.001-0.002-0.001c-6.977-5.015-15.174-7.768-23.738-8.016   c0.412-10.617-0.336-21.297-2.24-31.753c-0.227-1.24-0.922-2.318-1.959-3.035c-1.037-0.716-2.287-0.984-3.531-0.761   c-1.238,0.227-2.316,0.921-3.035,1.957c-0.717,1.037-0.986,2.291-0.762,3.531c1.891,10.366,2.57,20.956,2.021,31.478   c0,0.001,0,0.001,0,0.002l-1.086,15.755l0,0c-0.896,10.488-3.023,20.882-6.316,30.893c-0.812,2.472,0.539,5.144,3.01,5.957   c0.488,0.162,0.984,0.238,1.473,0.238c1.98,0,3.832-1.262,4.484-3.245c3.262-9.909,5.447-20.194,6.512-30.575   c4.695-0.11,9.307,1.366,13.029,4.238c8.537,7.494,15.441,16.445,20.523,26.602c0.65,1.297,1.766,2.263,3.141,2.721   c0.562,0.188,1.143,0.28,1.719,0.28c0.832,0,1.66-0.193,2.426-0.576c1.297-0.648,2.264-1.764,2.723-3.14   c0.457-1.376,0.352-2.849-0.297-4.145c-3.877-7.746-8.762-14.953-14.525-21.421c-0.131-0.149-0.137-0.368-0.012-0.521   c0.143-0.173,0.398-0.198,0.566-0.057c0.002,0.001,0.002,0.001,0.004,0.003c6.754,5.529,12.629,12.02,17.457,19.286   c1.043,1.571,2.77,2.424,4.529,2.424c1.031,0,2.074-0.293,2.994-0.906C1424.475,135.649,1425.156,132.272,1423.516,129.803z    M1421.32,136.306c-1.945,1.29-4.574,0.758-5.863-1.182c-4.893-7.367-10.846-13.945-17.695-19.551c0-0.001,0-0.002-0.002-0.003   c-0.68-0.56-1.693-0.461-2.256,0.224c-0.502,0.615-0.482,1.489,0.045,2.081c5.691,6.388,10.518,13.507,14.346,21.158   c0.506,1.011,0.588,2.157,0.232,3.229c-0.357,1.072-1.109,1.94-2.121,2.446c-1.01,0.505-2.156,0.589-3.229,0.23   c-1.07-0.356-1.941-1.108-2.445-2.119c-5.156-10.302-12.16-19.379-20.818-26.979c-0.004-0.005-0.012-0.006-0.018-0.011   c-0.004-0.003-0.006-0.009-0.012-0.013c-4.086-3.159-9.17-4.76-14.346-4.496c-0.041,0.002-0.076,0.019-0.115,0.029   c-0.014,0.003-0.027,0.006-0.041,0.01c-0.064,0.021-0.121,0.052-0.174,0.093c-0.008,0.006-0.018,0.013-0.025,0.021   c-0.043,0.036-0.078,0.078-0.109,0.126c-0.016,0.022-0.029,0.044-0.043,0.068c-0.018,0.04-0.029,0.079-0.037,0.123   c-0.006,0.024-0.021,0.044-0.023,0.07c-1.035,10.477-3.227,20.858-6.516,30.855c-0.607,1.845-2.602,2.848-4.443,2.243   c-1.844-0.607-2.85-2.601-2.246-4.443c3.326-10.103,5.469-20.592,6.373-31.175c0-0.001,0-0.004,0-0.005s0.002-0.004,0.002-0.006   l1.092-15.834c0.002-0.008-0.004-0.015-0.004-0.021c0.549-10.589-0.137-21.246-2.039-31.677c-0.168-0.925,0.033-1.858,0.568-2.632   s1.338-1.292,2.264-1.459c0.924-0.175,1.857,0.032,2.633,0.565c0.771,0.536,1.291,1.34,1.459,2.265   c1.926,10.562,2.668,21.355,2.205,32.08c0,0.003,0,0.006,0,0.009s0,0.005,0,0.007c0,0.032,0.012,0.059,0.016,0.09   c0.008,0.047,0.01,0.095,0.025,0.138c0.014,0.032,0.035,0.057,0.053,0.085c0.023,0.037,0.041,0.077,0.07,0.108   c0.025,0.027,0.059,0.044,0.09,0.065c0.033,0.023,0.061,0.051,0.096,0.067s0.074,0.019,0.111,0.028   c0.037,0.009,0.072,0.025,0.113,0.027c0.006,0,0.01,0,0.016,0c8.541,0.128,16.725,2.833,23.664,7.822   c0.006,0.004,0.012,0.002,0.016,0.005c0.008,0.005,0.012,0.012,0.018,0.017c12.137,7.592,22.328,17.465,30.293,29.351   c0.002,0.001,0.002,0.004,0.002,0.005C1423.791,132.386,1423.262,135.015,1421.32,136.306z" style=""></path></g><g style="" fill="currentColor"><path fill="currentColor" d="M27.256,49.917c0-6.37-5.183-11.553-11.553-11.553c-6.371,0-11.555,5.183-11.555,11.553   c0,6.372,5.184,11.555,11.555,11.555C22.074,61.472,27.256,56.289,27.256,49.917z M15.704,57.872c-4.387,0-7.955-3.568-7.955-7.955   c0-4.385,3.568-7.953,7.955-7.953c4.385,0,7.953,3.568,7.953,7.953C23.657,54.304,20.088,57.872,15.704,57.872z" style=""></path><path fill="currentColor" d="M95.418,78.667c-0.004-0.005-0.008-0.011-0.012-0.016c-0.002-0.001-0.002-0.003-0.002-0.006   c-8.156-12.171-18.592-22.284-31.02-30.056c-0.002-0.001-0.004-0.001-0.006-0.003c-6.822-4.876-14.775-7.644-23.105-8.11   c0.318-10.315-0.442-20.68-2.293-30.832c-0.283-1.556-1.155-2.908-2.455-3.808c-1.301-0.897-2.873-1.238-4.428-0.953   c-1.557,0.282-2.908,1.154-3.809,2.455c-0.899,1.301-1.238,2.873-0.954,4.428c0,0,0,0,0,0.002   c1.872,10.274,2.546,20.772,2.001,31.198c0,0.001,0,0.001,0,0.003l-1.083,15.715c-0.891,10.398-2.997,20.701-6.26,30.619   c-0.039,0.119-0.065,0.238-0.078,0.357c-0.783,2.997,0.871,6.134,3.852,7.115c0.608,0.2,1.234,0.3,1.858,0.3   c0.913,0,1.82-0.215,2.66-0.638c1.41-0.714,2.46-1.933,2.954-3.435c3.177-9.654,5.334-19.658,6.445-29.76   c4.048,0.111,7.972,1.501,11.199,3.979c8.403,7.388,15.202,16.203,20.208,26.207c0.793,1.584,2.154,2.764,3.834,3.323   c0.688,0.229,1.395,0.342,2.1,0.342c1.016,0,2.025-0.236,2.961-0.704c1.584-0.792,2.764-2.154,3.324-3.834   c0.547-1.645,0.426-3.396-0.322-4.955c-0.014-0.035-0.023-0.071-0.041-0.106c-2.326-4.646-5.018-9.094-8.031-13.313   c3.48,3.647,6.646,7.59,9.447,11.807c0.002,0.002,0.004,0.003,0.006,0.006c1.275,1.914,3.381,2.951,5.527,2.951   c1.26,0,2.531-0.357,3.656-1.104C96.598,85.82,97.43,81.697,95.418,78.667z M91.561,84.844c-1.391,0.92-3.271,0.543-4.197-0.845   c0-0.001,0-0.002,0-0.002c-4.961-7.468-10.994-14.135-17.934-19.815c0-0.001,0-0.001,0-0.001h-0.002   c0-0.002-0.002-0.003-0.002-0.003c-0.018-0.014-0.037-0.022-0.053-0.035c-0.57-0.445-1.271-0.656-2-0.585   c-0.744,0.074-1.414,0.433-1.891,1.013c-0.877,1.071-0.846,2.601,0.072,3.634c0.002,0.003,0.002,0.005,0.004,0.006   c5.619,6.308,10.387,13.339,14.17,20.898l0.002,0.001c0.361,0.725,0.42,1.545,0.164,2.312c-0.256,0.768-0.795,1.389-1.52,1.752   c-0.725,0.361-1.545,0.419-2.312,0.165c-0.768-0.256-1.389-0.795-1.752-1.518C69.086,81.38,61.988,72.18,53.213,64.477   c-0.016-0.013-0.031-0.021-0.049-0.034c-0.014-0.012-0.023-0.025-0.039-0.037c-4.315-3.335-9.693-5.028-15.14-4.746   c-0.016,0.001-0.029,0.006-0.044,0.007c-0.07,0.005-0.138,0.018-0.205,0.03c-0.05,0.01-0.1,0.018-0.148,0.031   c-0.064,0.019-0.124,0.043-0.186,0.067c-0.048,0.021-0.096,0.038-0.142,0.06c-0.057,0.029-0.109,0.064-0.163,0.1   c-0.043,0.028-0.088,0.055-0.128,0.087c-0.051,0.039-0.095,0.085-0.141,0.129c-0.037,0.035-0.075,0.068-0.109,0.108   c-0.041,0.047-0.076,0.098-0.112,0.15c-0.03,0.044-0.062,0.085-0.089,0.131c-0.029,0.051-0.053,0.107-0.077,0.161   c-0.023,0.054-0.049,0.105-0.067,0.161c-0.018,0.053-0.029,0.107-0.042,0.162c-0.015,0.062-0.03,0.125-0.038,0.19   c-0.002,0.015-0.008,0.029-0.01,0.046c-1.025,10.386-3.2,20.681-6.463,30.599c-0.194,0.588-0.605,1.066-1.158,1.345   c-0.554,0.279-1.182,0.326-1.77,0.133c-1.215-0.399-1.879-1.713-1.479-2.928c3.352-10.187,5.514-20.768,6.428-31.448   c0.001-0.007,0-0.013,0-0.02c0-0.003,0.003-0.006,0.003-0.01l1.091-15.834c0-0.011-0.001-0.021-0.001-0.03   c0.553-10.684-0.139-21.438-2.058-31.965c0-0.001,0-0.001,0-0.002c-0.111-0.608,0.021-1.225,0.374-1.733   c0.352-0.51,0.882-0.851,1.493-0.962c0.607-0.111,1.225,0.022,1.734,0.374c0.509,0.352,0.851,0.881,0.962,1.49   c1.909,10.475,2.645,21.179,2.186,31.814c-0.001,0.008,0.002,0.015,0.001,0.023c0,0.009-0.003,0.018-0.003,0.026   c-0.001,0.057,0.01,0.11,0.014,0.164c0.005,0.059,0.006,0.117,0.015,0.174c0.012,0.061,0.031,0.118,0.048,0.178   c0.016,0.055,0.027,0.11,0.048,0.162c0.021,0.057,0.052,0.109,0.079,0.162c0.025,0.05,0.048,0.102,0.077,0.148   c0.032,0.051,0.07,0.094,0.106,0.141c0.035,0.045,0.066,0.09,0.105,0.133c0.04,0.042,0.085,0.077,0.128,0.114   c0.044,0.038,0.085,0.079,0.132,0.112s0.098,0.059,0.147,0.088c0.051,0.029,0.1,0.062,0.153,0.087   c0.053,0.023,0.108,0.039,0.162,0.058c0.058,0.02,0.113,0.042,0.173,0.057c0.056,0.014,0.114,0.018,0.172,0.025   c0.055,0.007,0.106,0.021,0.163,0.023c0.016,0,0.031,0,0.046,0c0.002,0,0.003,0.001,0.005,0.001   c8.294,0.124,16.242,2.751,22.982,7.597c0.012,0.008,0.025,0.01,0.037,0.019c0.021,0.014,0.037,0.031,0.059,0.046   c11.994,7.502,22.066,17.262,29.938,29.008c0.002,0.002,0.004,0.003,0.004,0.004s0,0.004,0.002,0.005   C93.33,82.048,92.947,83.923,91.561,84.844z" style=""></path></g></svg>
