


<svg xmlns="http://www.w3.org/2000/svg" viewBox="0 0 64 64" x="0px" y="0px" style="max-width:100%" height="100%"><title style="" fill="#62d0df">avatar-man-beard-old-white</title><g style="" fill="#62d0df"><circle cx="26" cy="22" r="2" style="" fill="#62d0df"></circle><circle cx="37" cy="22" r="2" style="" fill="#62d0df"></circle><rect x="24" y="16" width="16" height="2" style="" fill="#62d0df"></rect><path d="M46.19,42.08l-5.82-.77A1.59,1.59,0,0,1,39,39.74v-3A12,12,0,0,0,44,27V26a4,4,0,0,0,4-4,3.91,3.91,0,0,0-1-2.55l.37-4.06a8.93,8.93,0,0,0-5.81-9.23A11,11,0,0,0,33,2H31a11,11,0,0,0-8.61,4.16,8.93,8.93,0,0,0-5.81,9.23L17,19.45A3.91,3.91,0,0,0,16,22a4,4,0,0,0,4,4v1a11.91,11.91,0,0,0,1.09,5A6.64,6.64,0,0,0,21,33a1,1,0,0,0,1,1h.26A12,12,0,0,0,25,36.73v3a1.59,1.59,0,0,1-1.37,1.57l-5.82.77A9,9,0,0,0,10,51V62h2V58h6v4h2V54H18v2H12V51a7,7,0,0,1,6.08-6.93l3.53-.48,3.48,7.82A1,1,0,0,0,26,52h.16L31,51.18V62h2V51.18l4.84.81H38a1,1,0,0,0,.91-.59l3.48-7.82,3.53.48A7,7,0,0,1,52,51v5H46V54H44v8h2V58h6v4h2V51A9,9,0,0,0,46.19,42.08ZM44,24V20a2,2,0,0,1,0,4ZM23.32,8a1.05,1.05,0,0,0,.48-.35A9.05,9.05,0,0,1,31,4h2a9.05,9.05,0,0,1,7.2,3.6,1.05,1.05,0,0,0,.48.35,7,7,0,0,1,4.75,7.26l-.27,3A4,4,0,0,0,44,18V14a5,5,0,0,0-5-5H37a1,1,0,0,0-.83.45l-.34.5a4.6,4.6,0,0,1-7.66,0l-.34-.5A1,1,0,0,0,27,9H25a5,5,0,0,0-5,5v4a4,4,0,0,0-1.16.19l-.27-3A7,7,0,0,1,23.32,8ZM18,22a2,2,0,0,1,2-2v4A2,2,0,0,1,18,22Zm4,5V14a3,3,0,0,1,3-3h1.46l0,.06a6.61,6.61,0,0,0,11,0l0-.06H39a3,3,0,0,1,3,3V27a9.93,9.93,0,0,1-1.16,4.66A6,6,0,0,0,35,27H30.44l2.5-6.65-1.88-.7L28.31,27H27a6,6,0,0,0-4.72,2.31A9.87,9.87,0,0,1,22,27Zm1.13,5A4,4,0,0,1,27,29h2.87A4,4,0,0,1,26,32Zm15.74,0H36a4,4,0,0,1-3.87-3H35A4,4,0,0,1,38.87,32ZM26,34a6,6,0,0,0,5-2.69A6,6,0,0,0,36,34h3.13a10,10,0,0,1-14.25,0Zm6,5a11.77,11.77,0,0,0,5-1.11v1.85a3.61,3.61,0,0,0,.75,2.17L32,48.48l-5.75-6.57A3.61,3.61,0,0,0,27,39.74V37.88A11.87,11.87,0,0,0,32,39Zm-8.32,4.32.21,0a3,3,0,0,0,.74-.19l5.44,6.21-3.47.58ZM37.4,49.89l-3.47-.58,5.44-6.21a3,3,0,0,0,.74.19l.21,0Z" style="" fill="#62d0df"></path><path d="M28.5,56A1.5,1.5,0,1,0,27,54.5,1.5,1.5,0,0,0,28.5,56Zm0-2a.5.5,0,1,1-.5.5A.5.5,0,0,1,28.5,54Z" style="" fill="#62d0df"></path></g></svg>
