<svg xmlns="http://www.w3.org/2000/svg" data-name="Layer 1" viewBox="0 0 64 64" x="0px" y="0px" style="max-width:100%" height="100%"><title style="" fill="currentColor">Artboard 88</title><path d="M13.85,25.1a1.94,1.94,0,1,0,1.93,2.09.76.76,0,0,0,0-.15A1.94,1.94,0,0,0,13.85,25.1Z" style="" fill="currentColor"></path><path d="M63.43,23.26a1.11,1.11,0,0,0-2,1,1.57,1.57,0,0,1-.71,2.08,1.58,1.58,0,0,1-1.19.07,1.51,1.51,0,0,1-.88-.78,1.31,1.31,0,0,0-.19-.27,22.06,22.06,0,0,0-6.41-7.54,30,30,0,0,0-9.85-4.91A6.49,6.49,0,0,0,42.5,11a6.83,6.83,0,1,0-13.66,0,5.37,5.37,0,0,0,0,.7q-1.72.16-3.39.48c-4.12-3.22-8.84-5.08-13.12-5.08a10.9,10.9,0,0,0-7.9,3,1.12,1.12,0,0,0,0,1.57l7,7a21.39,21.39,0,0,0-5.66,7.3H1.29A1.11,1.11,0,0,0,.18,27V39.57a1.11,1.11,0,0,0,1.11,1.11H5.83a21.8,21.8,0,0,0,6.71,8.14,27,27,0,0,0,4.36,2.74v7.21A1.11,1.11,0,0,0,18,59.88h8.36a1.11,1.11,0,0,0,1.11-1.11v-4a36.39,36.39,0,0,0,9.63,0v4a1.11,1.11,0,0,0,1.11,1.11h8.36a1.12,1.12,0,0,0,1.12-1.11V51.56a27.85,27.85,0,0,0,4.36-2.74c5.37-4.12,8.34-9.63,8.34-15.52a17.51,17.51,0,0,0-.63-4.62h.28a3.77,3.77,0,0,0,3.38-5.43ZM31.07,11a4.6,4.6,0,1,1,9.2,0,4.48,4.48,0,0,1-.21,1.38,4.6,4.6,0,0,1-9-.81A5.44,5.44,0,0,1,31.07,11ZM47.7,49c-.72.4-1.46.77-2.23,1.12v7.5H39.33v-5.5c-.72.15-1.47.28-2.22.39a34.26,34.26,0,0,1-9.63,0q-1.12-.16-2.22-.39v5.5H19.12v-7.5c-.77-.35-1.51-.72-2.22-1.12a21.67,21.67,0,0,1-8.58-8.36,16.89,16.89,0,0,1-1-2.22H2.4V28.15H7.33a16.89,16.89,0,0,1,1-2.22,19.74,19.74,0,0,1,4.75-5.72c.56-.47,1.16-.93,1.78-1.36l-1.6-1.59L6.89,10.89a9.17,9.17,0,0,1,5.48-1.62,18.93,18.93,0,0,1,10.28,3.54,25.57,25.57,0,0,1,2.27,1.72c.9-.2,1.82-.37,2.76-.5.59-.08,1.2-.15,1.8-.2a6.81,6.81,0,0,0,1.3,1.87c-4.55.45-8.93,1.93-11.78,4.08a1.12,1.12,0,0,0-.22,1.56,1.1,1.1,0,0,0,1.55.22c2.65-2,8-3.93,14-3.77,4.64.13,11.12,1.55,15.69,7.61a1.11,1.11,0,0,0,.89.44,1.07,1.07,0,0,0,.67-.23,1.1,1.1,0,0,0,.21-1.55,21.05,21.05,0,0,0-11.87-7.75,7.3,7.3,0,0,0,1.33-1.39c9.88,2.75,17,10,17,18.38C58.17,39.74,54.05,45.46,47.7,49Z" style="" fill="currentColor"></path></svg>
