


<svg xmlns="http://www.w3.org/2000/svg" viewBox="0 0 64 64" x="0px" y="0px" style="max-width:100%" height="100%"><g style="" fill="#62d0df"><path d="M27.38,17.907a1,1,0,1,0-1.09-1.629,1.15,1.15,0,0,0-.21.329.942.942,0,0,0,0,.76.958.958,0,0,0,.92.621A1,1,0,0,0,27.38,17.907Z" style="" fill="#62d0df"></path><path d="M32.29,17.7a1.056,1.056,0,0,0,.71.29,1,1,0,0,0,.38-.081,1,1,0,1,0-1.09-1.629,1.15,1.15,0,0,0-.21.329.942.942,0,0,0,0,.76A1.048,1.048,0,0,0,32.29,17.7Z" style="" fill="#62d0df"></path><path d="M43,31.285V11a9.01,9.01,0,0,0-9-9H32a9.01,9.01,0,0,0-9,9V35.106a4.995,4.995,0,0,0-1.827,9.016A10.946,10.946,0,0,0,19.1,45.45a3,3,0,0,0-4.225.014l-1.414,1.414a3,3,0,0,0,0,4.243l.129.129A2.971,2.971,0,0,0,13,53v2a2.994,2.994,0,0,0,2.764,2.976l1.95,5.066,1.867-.719L17.917,58H39.86A5.029,5.029,0,0,0,41,57.865V62h2V56.882a4.988,4.988,0,0,0,1.023-1.109l.139-.209A4.986,4.986,0,0,0,45,52.79V44a1,1,0,0,0,1-1V37A6.972,6.972,0,0,0,43,31.285ZM25,12V11a7.008,7.008,0,0,1,7-7h2a7.008,7.008,0,0,1,7,7v3.184A2.966,2.966,0,0,0,40,14H38.12A4.116,4.116,0,0,1,35,10a1,1,0,0,0-1-1,13.4,13.4,0,0,0-9,3.439Zm15,6H39V16h1a1,1,0,0,1,0,2Zm1,1.816V30.3a6.956,6.956,0,0,0-2-.3H35.969A.968.968,0,0,0,36,29.8V26.736A6.991,6.991,0,0,0,39,21V20h1A2.966,2.966,0,0,0,41,19.816ZM25,15.351l.034-.043a11.418,11.418,0,0,1,8.053-4.272A6.1,6.1,0,0,0,37,15.73V21a5.006,5.006,0,0,1-5,5H30a5.006,5.006,0,0,1-5-5Zm5.638,18.976L30,29.73V28h2a6.956,6.956,0,0,0,2-.3v1.782ZM25,25.889a7,7,0,0,0,3,1.816v2.1a.915.915,0,0,0,.01.138l.021.151A5.964,5.964,0,0,0,25,31.543ZM14.586,49a.989.989,0,0,1,.293-.707l1.414-1.414a1,1,0,0,1,1.414,0l1.414,1.415a1,1,0,0,1,0,1.414l-1.414,1.414a1,1,0,0,1-1.414,0l-1.414-1.415A.989.989,0,0,1,14.586,49ZM43,52.79a3,3,0,0,1-.5,1.667l-.139.209A3,3,0,0,1,39.86,56H16a1,1,0,0,1-1-1V53a1,1,0,0,1,.058-.318,2.976,2.976,0,0,0,4.063-.146L19.657,52H20a.978.978,0,0,1,.713.306A.965.965,0,0,1,21,53a1,1,0,0,0,1.124.992L37.239,52.1A2,2,0,0,0,39,50.12V44h4ZM44,42H38a1,1,0,0,0-1,1l0,7.118-14.2,1.775a2.861,2.861,0,0,0-.666-1,2.922,2.922,0,0,0-.981-.665,2.976,2.976,0,0,0-.608-3.346A8.814,8.814,0,0,1,24.2,45.19a1,1,0,0,0,.8-.98V44a1,1,0,0,0-1-1,3,3,0,0,1,0-6,1,1,0,0,0,1-1,4,4,0,0,1,3.306-3.93l.351,2.533a2,2,0,0,0,3.624.865L34.69,32H39a5.006,5.006,0,0,1,5,5Z" style="" fill="#62d0df"></path><path d="M16,39.236a3,3,0,0,0-4.342-2.683l-.211.105a1,1,0,0,1-.894,0l-.211-.105A3,3,0,0,0,6,39.236a4.546,4.546,0,0,0,1.812,3.622L10.4,44.8a1,1,0,0,0,1.2,0l2.588-1.942A4.546,4.546,0,0,0,16,39.236Zm-3.011,2.023L11,42.75,9.011,41.259A2.542,2.542,0,0,1,8,39.236a.988.988,0,0,1,.475-.851A1.028,1.028,0,0,1,9,38.233a.981.981,0,0,1,.445.109l.211.105a3.016,3.016,0,0,0,2.684,0l.211-.105A1,1,0,0,1,14,39.236,2.542,2.542,0,0,1,12.989,41.259Z" style="" fill="#62d0df"></path><path d="M27.106,21.553a1,1,0,0,0,.448,1.342,5.5,5.5,0,0,0,4.892,0,1,1,0,1,0-.894-1.789,3.485,3.485,0,0,1-3.105,0A1,1,0,0,0,27.106,21.553Z" style="" fill="#62d0df"></path></g></svg>
