



<svg xmlns="http://www.w3.org/2000/svg" xmlns:xlink="http://www.w3.org/1999/xlink" version="1.1" x="0px" y="0px" viewBox="0 0 52 52" style="enable-background:new 0 0 52 52;max-width:100%" xml:space="preserve" height="100%"><style type="text/css" style="" fill="#62d0df">
	.st0{fill:none;stroke:#000000;stroke-width:2;stroke-miterlimit:10;}
	.st1{fill:none;stroke:#000000;stroke-width:2;stroke-linecap:round;stroke-linejoin:round;stroke-miterlimit:10;}
</style><g style="" fill="#62d0df"><g style="" fill="#62d0df"><path d="M8.7822266,50H8.7734375c-2.6459961,0-4.7988281-2.1523438-4.7988281-4.7983398V29.8813477c0-0.5522461,0.4477539-1,1-1    h7.605957c0.5522461,0,1,0.4477539,1,1v15.3203125C13.5805664,47.8476563,11.4282227,50,8.7822266,50z M5.9746094,30.8813477    v14.3203125C5.9746094,46.7446289,7.2299805,48,8.7734375,48h0.0087891c1.5429688,0,2.7983398-1.2553711,2.7983398-2.7983398    V30.8813477H5.9746094z" style="" fill="#62d0df"></path></g><g style="" fill="#62d0df"><path d="M11.0791016,30.8813477H6.4765625c-0.5522461,0-1-0.4477539-1-1V26.78125c0-1.1030273,0.8969727-2,2-2h2.6025391    c1.1030273,0,2,0.8969727,2,2v3.1000977C12.0791016,30.4335938,11.6313477,30.8813477,11.0791016,30.8813477z     M7.4765625,28.8813477h2.6025391V26.78125H7.4765625V28.8813477z" style="" fill="#62d0df"></path></g><g style="" fill="#62d0df"><path d="M45.5234375,30.8813477h-4.6025391c-0.5522461,0-1-0.4477539-1-1V26.78125c0-1.1030273,0.8969727-2,2-2h2.6025391    c1.1030273,0,2,0.8969727,2,2v3.1000977C46.5234375,30.4335938,46.0756836,30.8813477,45.5234375,30.8813477z     M41.9208984,28.8813477h2.6025391V26.78125h-2.6025391V28.8813477z" style="" fill="#62d0df"></path></g><g style="" fill="#62d0df"><path d="M43.2270508,50h-0.0092773c-2.6459961,0-4.7983398-2.1523438-4.7983398-4.7983398V29.8813477c0-0.5522461,0.4477539-1,1-1    h7.605957c0.5522461,0,1,0.4477539,1,1v15.3203125C48.0253906,47.8476563,45.8730469,50,43.2270508,50z M40.4194336,30.8813477    v14.3203125C40.4194336,46.7446289,41.6748047,48,43.2177734,48h0.0092773c1.5429688,0,2.7983398-1.2553711,2.7983398-2.7983398    V30.8813477H40.4194336z" style="" fill="#62d0df"></path></g><g style="" fill="#62d0df"><path d="M14.4038086,30.8813477H3.1518555c-0.5522461,0-1-0.4477539-1-1s0.4477539-1,1-1h11.2519531c0.5522461,0,1,0.4477539,1,1    S14.9560547,30.8813477,14.4038086,30.8813477z" style="" fill="#62d0df"></path></g><g style="" fill="#62d0df"><path d="M48.8481445,30.8813477H37.5966797c-0.5522461,0-1-0.4477539-1-1s0.4477539-1,1-1h11.2514648c0.5522461,0,1,0.4477539,1,1    S49.4003906,30.8813477,48.8481445,30.8813477z" style="" fill="#62d0df"></path></g><g style="" fill="#62d0df"><path d="M26.2792969,36.8144531c-2.9418945,0-5.3349609-2.3930664-5.3349609-5.3349609V9.5830078    C20.9443359,6.5043945,18.4394531,4,15.3608398,4S9.777832,6.5043945,9.777832,9.5830078V25.78125c0,0.5522461-0.4477539,1-1,1    s-1-0.4477539-1-1V9.5830078C7.777832,5.4018555,11.1796875,2,15.3608398,2c4.1816406,0,7.5834961,3.4018555,7.5834961,7.5830078    v21.8964844c0,1.8388672,1.4960938,3.3349609,3.3349609,3.3349609c1.8393555,0,3.3354492-1.4960938,3.3354492-3.3349609    V18.3803711c0-4.0273438,3.2763672-7.3037109,7.3037109-7.3037109s7.3037109,3.2763672,7.3037109,7.3037109V25.78125    c0,0.5522461-0.4477539,1-1,1s-1-0.4477539-1-1v-7.4008789c0-2.9243164-2.3793945-5.3037109-5.3037109-5.3037109    s-5.3037109,2.3793945-5.3037109,5.3037109v13.0991211C31.6147461,34.4213867,29.2211914,36.8144531,26.2792969,36.8144531z" style="" fill="#62d0df"></path></g><g style="" fill="#62d0df"><g style="" fill="#62d0df"><path d="M12.5805664,40.440918h-7.605957c-0.5522461,0-1-0.4477539-1-1s0.4477539-1,1-1h7.605957c0.5522461,0,1,0.4477539,1,1     S13.1328125,40.440918,12.5805664,40.440918z" style="" fill="#62d0df"></path></g><g style="" fill="#62d0df"><path d="M12.5805664,36.0507813h-7.605957c-0.5522461,0-1-0.4477539-1-1s0.4477539-1,1-1h7.605957c0.5522461,0,1,0.4477539,1,1     S13.1328125,36.0507813,12.5805664,36.0507813z" style="" fill="#62d0df"></path></g><g style="" fill="#62d0df"><path d="M12.5805664,44.8305664h-7.605957c-0.5522461,0-1-0.4477539-1-1s0.4477539-1,1-1h7.605957c0.5522461,0,1,0.4477539,1,1     S13.1328125,44.8305664,12.5805664,44.8305664z" style="" fill="#62d0df"></path></g></g><g style="" fill="#62d0df"><g style="" fill="#62d0df"><path d="M47.0253906,40.440918h-7.605957c-0.5522461,0-1-0.4477539-1-1s0.4477539-1,1-1h7.605957c0.5522461,0,1,0.4477539,1,1     S47.5776367,40.440918,47.0253906,40.440918z" style="" fill="#62d0df"></path></g><g style="" fill="#62d0df"><path d="M47.0253906,36.0507813h-7.605957c-0.5522461,0-1-0.4477539-1-1s0.4477539-1,1-1h7.605957c0.5522461,0,1,0.4477539,1,1     S47.5776367,36.0507813,47.0253906,36.0507813z" style="" fill="#62d0df"></path></g><g style="" fill="#62d0df"><path d="M47.0253906,44.8305664h-7.605957c-0.5522461,0-1-0.4477539-1-1s0.4477539-1,1-1h7.605957c0.5522461,0,1,0.4477539,1,1     S47.5776367,44.8305664,47.0253906,44.8305664z" style="" fill="#62d0df"></path></g></g></g></svg>