<svg xmlns="http://www.w3.org/2000/svg" viewBox="0 0 512 512.02969" x="0px" y="0px" style="max-width:100%" height="100%"><path d="m256.015625 0c-28.277344 0-51.199219 22.921875-51.199219 51.199219 0 28.277343 22.921875 51.199219 51.199219 51.199219s51.199219-22.921876 51.199219-51.199219c-.027344-28.265625-22.933594-51.1718752-51.199219-51.199219zm0 85.332031c-18.851563 0-34.132813-15.28125-34.132813-34.132812 0-18.851563 15.28125-34.132813 34.132813-34.132813s34.132813 15.28125 34.132813 34.132813c0 9.054687-3.597657 17.734375-9.996094 24.136719-6.402344 6.402343-15.085938 9.996093-24.136719 9.996093zm0 0" style="" fill="white"></path><path d="m494.949219 76.800781h-17.066407c0-9.425781-7.640624-17.066406-17.066406-17.066406h-17.066406c-9.425781 0-17.070312 7.640625-17.070312 17.066406v34.132813h-18.515626c-2.832031-8.113282-9.574218-14.246094-17.917968-16.300782-2.039063-.503906-4.132813-.761718-6.230469-.765624-10.8125.042968-20.425781 6.875-24.03125 17.066406h-35.703125c-.4375.050781-.875.136718-1.296875.265625-.988281-.09375-1.960937-.265625-2.96875-.265625h-28.757813c-.195312 0-.359374.101562-.554687.109375-.195313.011719-.359375-.109375-.554687-.109375h-68.265626c-.199218 0-.359374.101562-.554687.109375-.199219.011719-.359375-.109375-.554687-.109375h-28.929688c-.957031 0-1.886719.160156-2.832031.253906-.414063-.117188-.835938-.203125-1.261719-.253906h-35.707031c-3.601563-10.191406-13.21875-17.023438-24.027344-17.066406-2.101563.003906-4.191406.257812-6.230469.757812-8.34375 2.0625-15.082031 8.195312-17.917968 16.308594h-18.519532v-34.132813c0-9.425781-7.640625-17.066406-17.066406-17.066406h-17.066406c-9.425782 0-17.066406 7.640625-17.066406 17.066406h-17.066407c-9.425781 0-17.066406 7.640625-17.066406 17.066407v51.199218c0 9.425782 7.640625 17.066406 17.066406 17.066406h17.066407c0 9.425782 7.640624 17.066407 17.066406 17.066407h17.066406c9.425781 0 17.066406-7.640625 17.066406-17.066407v-34.132812h17.066406v77.566406c-.09375 9.476563 3.847657 18.542969 10.839844 24.9375 6.664063 6.175782 15.664063 9.1875 24.703125 8.265625 9.820313-.894531 18.808594-5.898437 24.746094-13.769531l25.046875-31.925781v289.058593c-.011719 8.460938 3.570312 16.527344 9.847656 22.195313 6.277344 5.671875 14.664063 8.410156 23.082032 7.542969 15.480468-2.027344 27-15.316406 26.800781-30.933594v-131.070312c0-4.714844 3.820312-8.535157 8.535156-8.535157 2.300781-.007812 4.503906.9375 6.082031 2.613281 1.582032 1.5625 2.46875 3.699219 2.449219 5.921876v131.070312c-.195313 15.617188 11.320313 28.90625 26.804687 30.933594.996094.101562 1.996094.15625 2.996094.15625 7.9375.015625 15.554688-3.125 21.171875-8.734375 5.617188-5.609375 8.769531-13.222657 8.761719-21.160157v-289.058593l24.902344 31.761719c5.945312 7.960937 14.992187 13.027343 24.890625 13.933593 9.019531.941407 18.007812-2.054687 24.660156-8.214843 7.011719-6.40625 10.96875-15.492188 10.878906-24.988282v-77.566406h17.066407v34.132812c0 9.425782 7.644531 17.066407 17.070312 17.066407h17.066406c9.425782 0 17.066406-7.640625 17.066406-17.066407h17.066407c9.425781 0 17.066406-7.640624 17.066406-17.066406v-51.199218c0-9.425782-7.640625-17.066407-17.066406-17.066407zm-477.867188 68.265625v-51.199218h17.066407v51.199218zm51.199219 17.066406h-17.066406v-85.332031h17.066406zm278.683594-34.132812h11.449218v16.035156zm-193.351563 16.035156v-16.035156h11.453125zm-4.445312 70.59375c-3.050781 4.082032-7.683594 6.679688-12.757813 7.152344-4.234375.460938-8.464844-.933594-11.59375-3.824219-3.484375-3.164062-5.429687-7.683593-5.335937-12.390625v-86.101562c-.023438-3.90625 2.628906-7.324219 6.417969-8.277344 2.546874-.5625 5.210937.035156 7.273437 1.636719 2.058594 1.601562 3.296875 4.035156 3.375 6.640625v51.203125c.007813 3.703125 2.402344 6.984375 5.929687 8.113281 3.53125 1.132812 7.386719-.144531 9.542969-3.15625l7.722657-10.804688 8.472656 25.507813zm69.8125 280.304688c-3.625.378906-7.242188-.796875-9.949219-3.234375-2.714844-2.433594-4.25-5.917969-4.214844-9.566407v-106.667968h25.597656v105.472656c.207032 6.863281-4.667968 12.828125-11.433593 13.996094zm37.035156-170.667969c-14.140625 0-25.601563 11.460937-25.601563 25.601563v8.53125h-25.597656v-64.273438c16.824219 3.53125 34.011719 5.054688 51.199219 4.542969 17.183594.511719 34.371094-1.011719 51.199219-4.542969v64.273438h-25.601563v-8.53125c-.058593-14.113282-11.484375-25.539063-25.597656-25.601563zm46.984375 167.390625c-2.699219 2.460938-6.316406 3.652344-9.949219 3.277344-6.765625-1.167969-11.640625-7.132813-11.4375-13.996094v-105.472656h25.601563v106.667968c.019531 3.632813-1.511719 7.097657-4.214844 9.523438zm19.464844-328.53125c-2.242188-2.863281-6.050782-3.988281-9.488282-2.808594-3.4375 1.183594-5.75 4.410156-5.761718 8.046875v108.015625c-16.691406 4.382813-33.964844 6.144532-51.199219 5.222656-17.234375.921876-34.507813-.839843-51.199219-5.222656v-108.015625c0-3.640625-2.308594-6.878906-5.75-8.066406s-7.253906-.0625-9.5 2.800781l-8.714844 11.09375-8.832031-26.566406 12.230469-17.117188c2.238281-1.675781 4.96875-2.558593 7.765625-2.507812h28.757813c.195312 0 .355468-.101562.554687-.109375.195313-.011719.355469.109375.554687.109375h68.265626c.195312 0 .359374-.101562.554687-.109375.195313-.011719.359375.109375.554687.109375h28.925782c2.742187-.023438 5.410156.859375 7.597656 2.507812l12.226562 17.117188-8.832031 26.589844zm70.082031 42.441406c.09375 4.730469-1.871094 9.265625-5.382813 12.433594-3.128906 2.859375-7.332031 4.238281-11.546874 3.78125-5.136719-.492188-9.820313-3.152344-12.875-7.3125l-18.929688-24.175781 8.476562-25.503907 7.722657 10.800782c2.152343 3.007812 6 4.285156 9.523437 3.164062 3.527344-1.121094 5.925782-4.386718 5.945313-8.085937v-51.203125c.0625-2.617188 1.296875-5.066406 3.367187-6.671875 2.070313-1.601563 4.75-2.1875 7.300782-1.59375 3.78125.953125 6.425781 4.367187 6.398437 8.265625zm51.203125-43.433594v-85.332031h17.066406v85.332031zm34.132812-17.066406v-51.199218h17.066407v51.199218zm0 0" style="" fill='white'></path></svg>
