<svg xmlns="http://www.w3.org/2000/svg" data-name="Layer 1" viewBox="0 0 512 512" x="0px" y="0px" style="max-width:100%" height="100%"><title style="" fill="currentColor">Fitness</title><path d="M331.383,53.329a87.263,87.263,0,0,1,4.949-12.764A7.906,7.906,0,0,0,329.233,29H182.767a7.929,7.929,0,0,0-7.1,11.592,86.294,86.294,0,0,1,4.951,12.753c10.887,35.124-7.5,67.665-29,97.606C104.589,216.456,101.155,298.6,138.01,476.687A7.942,7.942,0,0,0,145.844,483H366.156a7.946,7.946,0,0,0,7.834-6.317c36.855-178.085,33.421-260.266-13.608-325.771C338.887,120.971,320.5,88.454,331.383,53.329ZM164.615,160.274c22.761-31.7,44.277-69.7,31.285-111.619-.406-1.311-.815-2.655-1.217-3.655H317.317c-.4,1-.811,2.344-1.216,3.654-12.993,41.918,8.523,79.948,31.284,111.651,16.022,22.317,26.565,46.989,31.771,77.716l-22.288,4.452c-76.358,15.271-125.378,15.268-201.735,0l-22.289-4.463C138.05,207.281,148.593,182.591,164.615,160.274ZM260.1,364.723l-8.714.277h-.03a5.368,5.368,0,0,1-5.126-4.98c-2.68-28.684-16.96-53.311-41.295-71-20.263-14.731-46.682-23.828-75.059-25.89.225-3.117.5-6.2.808-9.207l21.31,4.25c39.366,7.874,71.685,11.8,104.005,11.8s64.639-3.941,104.006-11.814l21.308-4.266q.463,4.428.8,9.018c-28.307,2.125-54.727,11.154-75.1,25.824-24.668,17.764-39.128,42.44-41.817,71.146A5.262,5.262,0,0,1,260.1,364.723ZM129.125,278.994c25.266,1.9,48.625,9.895,66.4,22.819,20.51,14.91,32.571,35.479,34.81,59.452A21.521,21.521,0,0,0,248,380.253V467H152.367C135.856,386,128.018,326.206,129.125,278.994ZM359.633,467H264V380.136a21.258,21.258,0,0,0,17.162-18.877c2.245-23.969,14.411-44.558,35.218-59.541,17.9-12.892,41.277-20.927,66.5-22.885C384.009,326.069,376.163,386,359.633,467Z" style="" fill="currentColor"></path><path d="M475,124H407.712l14.08-14.081a8,8,0,1,0-11.313-11.313l-27.78,27.78a8,8,0,0,0,0,11.313l27.78,27.78a8,8,0,0,0,11.313-11.314L407.627,140H475a8,8,0,0,0,0-16Z" style="" fill="currentColor"></path><path d="M129.657,126.386l-27.78-27.78a8,8,0,1,0-11.313,11.313L104.644,124H37a8,8,0,0,0,0,16h67.729L90.564,154.165a8,8,0,1,0,11.313,11.314l27.78-27.78A8,8,0,0,0,129.657,126.386Z" style="" fill="currentColor"></path></svg>
