<svg xmlns="http://www.w3.org/2000/svg" xmlns:xlink="http://www.w3.org/1999/xlink" version="1.1" x="0px" y="0px" viewBox="0 0 512 512" enable-background="new 0 0 512 512" xml:space="preserve" style="max-width:100%" height="100%"><g style="" fill='white'><path fill='white' d="M424.187,275.219c-0.016-0.031-0.016-0.062-0.031-0.078c-8.906-43.805-23.047-68.984-34.422-89.226   c-7.859-13.984-14.062-25.023-16.594-38.539c-5.219-27.812,13.484-106.069,21.141-133.874c0.875-3.211,0.219-6.648-1.812-9.297   c-2.016-2.648-5.141-4.203-8.469-4.203H128.002c-3.344,0-6.469,1.555-8.484,4.203c-2.031,2.648-2.688,6.086-1.812,9.297   c7.656,27.805,26.359,106.062,21.141,133.874c-2.531,13.516-8.734,24.555-16.594,38.539   c-11.375,20.241-25.516,45.421-34.422,89.226c-0.016,0.016-0.016,0.047-0.031,0.078c0,0.031-0.016,0.094-0.016,0.125   c-15.156,75.154,49.016,223.936,51.766,230.248c1.688,3.891,5.53,6.406,9.78,6.406h213.326c4.25,0,8.094-2.516,9.781-6.406   c2.75-6.312,66.921-155.094,51.766-230.248C424.202,275.312,424.187,275.25,424.187,275.219z M256,371.123L133.08,288h245.825   L256,371.123z M140.846,196.367c8.468-15.077,15.78-28.093,18.968-45.062c3.078-16.445,0.344-45.734-8.156-87.077   c-3.484-17.023-7.218-32.477-9.843-42.891h228.356c-2.625,10.414-6.359,25.867-9.844,42.891   c-8.5,41.343-11.234,70.632-8.156,87.077c3.188,16.969,10.5,29.984,18.969,45.062c9.969,17.734,21.109,37.586,29.25,70.305H111.596   C119.736,233.953,130.877,214.102,140.846,196.367z M128.377,413.232c-15.25-49.016-22.547-88.998-21.5-117.201l138.451,93.623   V490.67h-88.921C151.173,477.998,139.189,447.982,128.377,413.232z M383.608,413.232c-10.812,34.75-22.797,64.766-28.031,77.438   h-88.921V389.654l138.452-93.623C406.155,324.234,398.858,364.217,383.608,413.232z" style=""></path><path fill='white' d="M104.908,144.54c2.734-4.141,2.281-9.766-1.375-13.414l-32-32c-4.156-4.163-10.922-4.163-15.078,0   c-4.172,4.172-4.172,10.922,0,15.086l13.781,13.789H10.659c-5.891,0-10.656,4.781-10.656,10.672s4.766,10.664,10.656,10.664h59.577   l-13.781,13.789c-4.172,4.172-4.172,10.922,0,15.086c2.078,2.086,4.812,3.125,7.547,3.125c2.719,0,5.453-1.039,7.531-3.125l32-32   C104.064,145.696,104.518,145.134,104.908,144.54z" style=""></path><path fill='white' d="M501.325,128.001h-59.577l13.781-13.789c4.172-4.164,4.172-10.914,0-15.086   c-4.156-4.163-10.922-4.163-15.078,0l-31.999,32c-3.641,3.648-4.109,9.273-1.375,13.414c0.391,0.594,0.844,1.156,1.375,1.672   l31.999,32c2.078,2.086,4.812,3.125,7.547,3.125c2.719,0,5.453-1.039,7.531-3.125c4.172-4.164,4.172-10.914,0-15.086   l-13.781-13.789h59.577c5.891,0,10.672-4.773,10.672-10.664S507.216,128.001,501.325,128.001z" style=""></path></g></svg>
