<svg xmlns="http://www.w3.org/2000/svg" viewBox="0 0 24 24"><path d="M 2 3 C 0.8974609 3 0 3.8969727 0 5 L 0 17 C 0 18.103027 0.8974609 19 2 19 L 22 19 C 23.102539 19 24 18.103027 24 17 L 24 5 C 24 3.8969727 23.102539 3 22 3 L 2 3 z M 2 4 L 22 4 C 22.551758 4 23 4.4487305 23 5 L 23 17 C 23 17.55127 22.551758 18 22 18 L 2 18 C 1.4482422 18 1 17.55127 1 17 L 1 5 C 1 4.4487305 1.4482422 4 2 4 z M 9.5019531 7 C 9.4155273 6.9996338 9.328125 7.0219727 9.25 7.0664062 C 9.0947266 7.1557617 9 7.3208008 9 7.5 L 9 14.5 C 9 14.679199 9.0966796 14.844238 9.2519531 14.933594 C 9.3291015 14.978027 9.4140625 15 9.5 15 C 9.5869141 15 9.6738281 14.976563 9.7519531 14.931641 L 15.751953 11.431641 C 15.905273 11.341797 16 11.177734 16 11 C 16 10.822266 15.905273 10.658203 15.751953 10.568359 L 9.7519531 7.0683594 C 9.6748047 7.0239258 9.5883789 7.0003662 9.5019531 7 z M 10 8.3710938 L 14.507812 11 L 10 13.628906 L 10 8.3710938 z M 6.5 20 C 6.2236328 20 6 20.223633 6 20.5 C 6 20.776367 6.2236328 21 6.5 21 L 17.5 21 C 17.776367 21 18 20.776367 18 20.5 C 18 20.223633 17.776367 20 17.5 20 L 6.5 20 z"></path></svg>
